# Blender v2.79 (sub 0) OBJ File: 'flat_panorama.blend'
# www.blender.org
o Icosphere_Icosphere.003
v 9.652214 2.931466 -9.776509
v 9.480956 2.570500 -11.322890
v 10.609188 6.028323 -11.434035
v 11.390812 1.971677 -10.565965
v 12.572712 2.931462 -10.083471
v 12.827936 3.272285 -12.040678
v 11.427286 2.046396 -11.740081
v 10.715926 2.507941 -9.503361
v 12.064767 4.109323 -12.844231
v 12.424935 3.890677 -9.417445
v 9.935233 3.890677 -9.155769
v 10.187765 3.263552 -12.844882
v 8.917000 3.890677 -11.442753
v 11.733617 5.068534 -9.334089
v 9.642332 5.068532 -9.787485
v 9.427288 5.068538 -11.916529
v 11.385682 5.068534 -12.778962
v 12.519044 5.429500 -10.677110
v 12.154092 5.492059 -11.994334
v 10.572714 5.953604 -10.259920
v 8.696300 6.122778 -12.137449
v 8.915889 3.058101 -12.524294
v 9.319625 3.491584 -11.262412
v 9.993672 4.185816 -13.346735
v 10.406789 4.994132 -12.577948
v 10.125928 4.137186 -11.220535
v 7.835909 3.653468 -11.677888
v 8.495956 4.996331 -10.801636
v 8.443687 4.098690 -13.520704
v 7.555492 5.188126 -12.534986
v 10.028950 5.629377 -11.774994
v 9.336346 5.594714 -13.279099
v 11.750113 5.086751 -9.517443
v 14.401117 5.581536 -10.648911
v 12.856191 6.136484 -9.693081
v 14.160486 2.836193 -9.376954
v 12.966000 3.221323 -10.931955
v 13.083127 3.254807 -8.333328
v 12.374203 2.857098 -9.584930
v 14.685618 3.785962 -10.800643
v 13.460591 4.875972 -11.404654
v 15.138716 4.037279 -9.048368
v 14.129086 4.421916 -8.096928
v 12.746457 4.806548 -7.983264
v 12.259967 4.726616 -11.017669
v 14.390162 5.861111 -9.028472
vt 0.112870 0.293850
vt 0.024969 0.227107
vt 0.128181 0.188141
vt 0.509000 0.418258
vt 0.428836 0.554096
vt 0.423942 0.429825
vt 0.359970 0.786246
vt 0.348414 0.717470
vt 0.452263 0.769494
vt 0.023901 0.160910
vt 0.142430 0.070604
vt 0.295288 0.132949
vt 0.364082 0.075904
vt 0.398290 0.221913
vt 0.512138 0.163253
vt 0.403149 0.291481
vt 0.496231 0.291481
vt 0.000000 0.402250
vt 0.167915 0.390059
vt 0.070530 0.487980
vt 0.225828 0.477678
vt 0.069972 0.545453
vt 0.269538 0.205061
vt 0.337419 0.010920
vt 0.500917 0.000000
vt 0.056949 0.000000
vt 0.208617 0.000828
vt 0.028155 0.293850
vt 0.612954 0.291481
vt 0.509000 0.413320
vt 0.513837 0.301214
vt 0.697695 0.495876
vt 0.517566 0.521908
vt 0.635802 0.573463
vt 0.269538 0.165273
vt 0.000000 0.095904
vt 0.225828 0.314946
vt 0.452263 0.571589
vt 0.359969 0.554096
vt 0.697695 0.333020
vt 0.359428 0.291481
vt 0.297399 0.501369
vt 0.269538 0.334598
vt 0.201683 0.293850
vt 0.269538 0.643498
vt 0.509000 0.293398
vt 0.139422 0.825627
vt 0.102195 0.905141
vt 0.021911 0.846636
vt 0.000000 0.986481
vt 0.872423 0.429669
vt 1.000000 0.351745
vt 1.000000 0.472399
vt 0.920341 0.538885
vt 0.878318 0.097577
vt 0.724588 0.077719
vt 0.819817 0.000000
vt 0.911170 0.004162
vt 0.830372 0.846596
vt 0.885861 0.910790
vt 0.830708 0.970877
vt 0.911170 0.179774
vt 0.792537 0.197046
vt 0.890323 0.291481
vt 0.948207 0.972527
vt 0.402447 0.959180
vt 0.269538 0.869498
vt 0.402447 0.817923
vt 0.293641 0.786246
vt 0.139422 0.981028
vt 0.948207 0.797425
vt 0.288914 0.986588
vt 0.830372 0.838956
vt 0.709218 0.912318
vt 0.718956 0.797425
vt 0.749528 1.000000
vt 0.830372 0.999558
vt 0.709218 0.781401
vt 0.583076 0.759319
vt 0.688557 0.693578
vt 0.182556 0.747164
vt 0.000000 0.730094
vt 0.050652 0.608848
vt 0.182556 0.622922
vt 0.081215 0.545453
vt 0.602184 0.781401
vt 0.670677 0.879384
vt 0.509000 0.856187
vt 0.752242 0.296683
vt 0.872423 0.291481
vt 0.872423 0.407937
vt 0.742844 0.488122
vt 0.697695 0.384589
vt 0.532423 0.989644
vt 0.850707 0.517768
vt 0.670677 0.994874
vt 0.880826 0.573463
vt 0.881923 0.660959
vt 0.747571 0.589649
vt 0.709218 0.719040
vt 0.833128 0.797425
vt 0.045027 0.825627
vt 0.170452 0.816998
vt 0.709218 0.573463
vt 0.607168 0.593880
vt 0.509000 0.653799
vt 0.724492 0.797425
vt 0.724588 0.111786
vt 0.604764 0.029495
vt 0.724588 0.000000
vt 0.606115 0.193698
vt 0.512138 0.095600
vt 0.707278 0.245918
vn -0.3703 -0.9024 0.2203
vn -0.2733 -0.9594 -0.0695
vn -0.3793 -0.4212 0.8238
vn -0.9093 -0.3714 0.1874
vn 0.0933 0.8351 -0.5421
vn -0.2913 0.6912 -0.6614
vn -0.6373 0.7701 0.0292
vn -0.6694 0.7398 0.0676
vn -0.1700 0.5971 0.7839
vn 0.2733 0.9594 0.0695
vn 0.3185 0.8521 0.4153
vn 0.3140 0.9485 -0.0420
vn -0.0229 0.0517 -0.9984
vn -0.3859 0.2881 -0.8764
vn -0.8999 0.4264 0.0909
vn -0.1916 0.4264 0.8840
vn 0.7417 0.3971 0.5405
vn 0.9267 0.2864 -0.2432
vn 0.8207 0.2598 -0.5089
vn 0.5238 0.4212 -0.7404
vn -0.7308 0.0425 -0.6813
vn -0.7642 -0.3742 -0.5253
vn -0.9135 -0.0090 0.4067
vn -0.9135 0.0063 0.4067
vn 0.1045 -0.0090 0.9945
vn 0.1027 -0.1876 0.9769
vn 0.3600 -0.4941 0.7914
vn 0.9888 0.0535 0.1393
vn 0.9887 0.0560 0.1387
vn 0.2459 -0.5452 -0.8014
vn -0.3240 -0.7952 -0.5126
vn -0.4129 -0.8757 0.2502
vn 0.3502 -0.7277 0.5897
vn 0.2547 -0.4948 -0.8309
vn 0.6373 -0.7701 -0.0292
vn 0.6522 -0.7566 -0.0467
vn -0.2039 -0.9040 0.3758
vn -0.2869 -0.4206 0.8607
vn 0.1019 0.7529 0.6502
vn -0.6576 0.6216 0.4256
vn -0.3996 0.7259 -0.5598
vn 0.3874 0.9001 -0.1991
vn 0.6077 0.7366 -0.2968
vn 0.1056 0.0968 -0.9897
vn -0.4294 0.3879 -0.8156
vn 0.3989 0.3421 0.8508
vn 0.6401 0.3319 -0.6929
vn -0.8554 -0.3628 -0.3698
vn -0.8683 0.1113 0.4834
vn 0.1298 -0.2247 0.9657
vn 0.9369 0.1737 0.3035
vn 0.9125 -0.4036 -0.0660
vn -0.6552 -0.6560 -0.3746
vn 0.1204 -0.6575 -0.7437
vn 0.6213 -0.7805 0.0693
vn 0.6995 -0.7121 -0.0598
vn -0.0492 -0.9435 0.3277
vn -0.9328 -0.2533 -0.2562
vn -0.2805 -0.1852 -0.9418
vn -0.5597 0.6711 0.4861
vn -0.6677 0.6399 -0.3805
vn -0.0968 0.7848 -0.6122
vn -0.2929 0.7176 -0.6319
vn -0.1206 0.7873 0.6046
vn 0.2424 0.9563 -0.1634
vn 0.2092 0.5043 0.8378
vn 0.7126 0.2855 0.6408
vn 0.9233 0.3796 -0.0592
vn 0.9473 0.1729 -0.2697
vn -0.7949 -0.3989 -0.4571
vn -0.8325 -0.2480 0.4954
vn -0.7890 -0.2930 0.5400
vn 0.0202 -0.2158 0.9762
vn 0.4532 -0.5485 0.7027
vn 0.5450 0.1560 -0.8238
vn 0.1757 -0.3186 -0.9314
vn 0.4542 -0.5596 0.6933
vn 0.3098 -0.8397 -0.4459
vn 0.0182 -0.9672 -0.2535
vn 0.7854 -0.6080 -0.1159
s off
f 4/1/1 8/2/1 2/3/1
f 4/4/2 2/5/2 7/6/2
f 1/7/3 8/8/3 11/9/3
f 2/3/4 1/10/4 13/11/4
f 19/12/5 17/13/5 3/14/5
f 17/13/6 16/15/6 3/14/6
f 3/14/7 16/15/7 20/16/7
f 16/15/8 15/17/8 20/16/8
f 15/18/9 14/19/9 20/20/9
f 20/20/10 18/21/10 3/22/10
f 20/20/11 14/19/11 18/21/11
f 18/23/12 19/12/12 3/14/12
f 9/24/13 12/25/13 17/13/13
f 12/25/14 16/15/14 17/13/14
f 13/11/15 15/26/15 16/27/15
f 11/28/16 14/19/16 15/18/16
f 10/29/17 18/30/17 14/31/17
f 6/32/18 19/33/18 18/30/18
f 6/32/19 9/34/19 19/33/19
f 9/24/20 17/13/20 19/12/20
f 12/35/21 13/11/21 16/27/21
f 12/35/22 2/3/22 13/11/22
f 13/11/23 11/36/23 15/26/23
f 13/11/24 1/10/24 11/36/24
f 11/28/25 10/37/25 14/19/25
f 11/9/26 8/8/26 10/38/26
f 8/8/27 5/39/27 10/38/27
f 10/29/28 6/32/28 18/30/28
f 10/29/29 5/40/29 6/32/29
f 6/41/30 12/42/30 9/43/30
f 7/44/31 2/3/31 12/35/31
f 2/3/32 8/2/32 1/10/32
f 4/45/33 5/39/33 8/8/33
f 6/41/34 7/6/34 12/42/34
f 4/4/35 7/6/35 5/46/35
f 7/6/36 6/41/36 5/46/36
f 22/47/37 23/48/37 27/49/37
f 27/49/38 23/48/38 28/50/38
f 28/51/39 31/52/39 21/53/39
f 30/54/40 28/51/40 21/53/40
f 32/55/41 30/56/41 21/57/41
f 31/58/42 32/55/42 21/57/42
f 31/59/43 25/60/43 32/61/43
f 24/62/44 29/63/44 32/55/44
f 29/63/45 30/56/45 32/55/45
f 26/64/46 31/52/46 28/51/46
f 24/65/47 32/61/47 25/60/47
f 29/66/48 27/67/48 30/68/48
f 27/67/49 28/69/49 30/68/49
f 28/50/50 23/48/50 26/70/50
f 26/71/51 25/60/51 31/59/51
f 26/71/52 24/65/52 25/60/52
f 22/72/53 27/67/53 29/66/53
f 24/73/54 22/74/54 29/75/54
f 23/76/55 22/74/55 26/77/55
f 22/74/56 24/73/56 26/77/56
f 39/78/57 36/79/57 38/80/57
f 39/81/58 33/82/58 45/83/58
f 37/84/59 45/83/59 41/85/59
f 33/86/60 44/87/60 35/88/60
f 45/89/61 33/90/61 35/91/61
f 34/92/62 41/93/62 35/91/62
f 41/93/63 45/89/63 35/91/63
f 35/88/64 44/87/64 46/94/64
f 46/95/65 34/92/65 35/91/65
f 43/96/66 46/94/66 44/87/66
f 43/97/67 42/98/67 46/99/67
f 42/98/68 34/100/68 46/99/68
f 42/98/69 40/101/69 34/100/69
f 37/84/70 39/81/70 45/83/70
f 33/82/71 39/81/71 44/102/71
f 39/81/72 38/103/72 44/102/72
f 44/104/73 38/80/73 43/105/73
f 38/80/74 42/106/74 43/105/74
f 40/101/75 41/107/75 34/100/75
f 40/108/76 37/109/76 41/110/76
f 36/79/77 42/106/77 38/80/77
f 40/108/78 36/111/78 37/109/78
f 36/111/79 39/112/79 37/109/79
f 36/111/80 40/108/80 42/113/80
