# Blender v2.79 (sub 0) OBJ File: 'isle.blend'
# www.blender.org
mtllib isle.mtl
o Island
v -0.600721 1.380140 -0.085467
v -0.375929 1.419345 0.290402
v 0.151721 1.292591 -0.280318
v -0.903578 1.433094 0.861122
v -2.065722 1.379199 0.293908
v -1.353163 1.297841 0.109384
v -2.940028 1.151078 0.585519
v -1.427913 1.315025 1.428257
v -2.543601 0.272132 2.846450
v -1.826303 1.050274 2.586826
v -3.426231 0.273333 0.646223
v -2.448192 -0.823652 2.737856
v -2.283350 -2.385900 0.350263
v -3.260859 -0.835161 0.603398
v -0.856467 -3.549784 -0.019241
v -1.560059 -2.390974 1.571187
v 0.124903 -5.101978 -0.251314
v -0.523103 -3.510802 0.449588
v -0.586618 1.308300 -0.523200
v -1.324957 1.313874 -0.766081
v -3.138346 0.904619 -1.362607
v -2.064188 1.364602 -1.009256
v -3.285096 -0.894630 -1.410882
v -3.755810 0.263157 -1.682123
v -2.189457 -2.344111 -1.050466
v 0.114195 -5.101978 -0.292666
v -0.675466 -3.409394 -0.552429
v -0.338097 1.345312 -0.883819
v -1.313906 1.352365 -2.106286
v -0.827916 1.299353 -1.487321
v -2.476928 0.267213 -3.519053
v -2.026502 0.893972 -2.964087
v -2.033469 -0.798260 -2.972672
v -1.300734 -2.212656 -2.069878
v -0.630419 -3.714058 -1.243989
v 0.065937 1.373580 -1.052832
v -0.019847 1.419605 -1.825345
v -0.106129 1.394939 -2.602334
v -0.298479 0.268400 -4.334505
v -0.259794 1.306364 -3.986133
v -0.104026 -2.222877 -2.583397
v -0.271384 -1.032729 -4.090505
v 0.147361 -5.101978 -0.319585
v -0.005270 -3.863220 -1.694073
v 0.497207 1.391796 -0.976577
v 0.842693 1.426207 -1.652654
v 2.012307 1.115569 -3.803962
v 1.192409 1.437633 -2.377618
v 1.629538 -0.706796 -3.258565
v 2.321017 0.267349 -3.712072
v 0.525417 -3.384658 -1.033430
v 1.151426 -2.166826 -2.295027
v 0.169281 -5.101978 -0.315709
v 0.818788 1.317680 -0.679264
v 1.485855 1.307266 -1.078210
v 2.180209 1.396671 -1.533838
v 3.425445 0.271807 -2.238202
v 3.256960 1.139065 -2.137437
v 2.123409 -2.206559 -1.459507
v 3.158000 -0.820907 -2.078254
v 1.000909 -3.507024 -0.788185
v 0.928580 1.325520 -0.255290
v 1.705439 1.297146 -0.230261
v 2.446070 1.256015 -0.206399
v 3.298210 1.269037 -0.167002
v 3.663603 0.275681 -0.167173
v 2.393212 -2.161523 -0.208104
v 3.506213 -0.685438 -0.162473
v 1.429403 -3.744675 -0.239156
v 0.185626 -5.101978 -0.300598
v 0.791725 1.401246 0.160739
v 2.073703 1.376974 1.044211
v 1.431729 1.413816 0.601796
v 3.121658 1.358384 1.766408
v 2.816408 -0.650068 1.556044
v 3.636988 0.266418 2.121546
v 2.280795 -2.443728 1.186927
v 0.184250 -5.101978 -0.257904
v 1.404983 -3.945160 0.583362
v 0.451673 1.404425 0.436735
v 0.751625 1.441967 1.153788
v 1.057110 1.478668 1.884068
v 1.663188 0.270489 3.332934
v 1.572069 1.233521 3.115109
v 1.027401 -2.183313 1.813046
v 1.527695 -0.861039 3.009031
v 0.633976 -3.721079 0.872539
v 0.016389 1.320457 0.485072
v -0.118944 1.394433 1.250461
v -0.256351 1.458022 2.027581
v -0.485536 1.202384 3.323763
v -0.517772 0.271410 3.506082
v -0.259844 -2.261158 2.047338
v -0.482500 -0.910360 3.306592
v -0.039827 -3.598061 0.803002
v 0.144843 -5.101978 -0.241420
v 0.957523 -5.790852 -0.200265
v 0.563578 -5.928387 0.050401
v 1.021703 -6.086739 0.168270
v 0.822044 -6.173032 -0.189643
v -0.469336 -5.254934 -0.954960
v -0.676410 -5.270777 -0.901536
v -0.637130 -5.287736 -1.067142
v -0.782577 -5.146267 -1.040385
v -0.573638 -5.128154 -1.096958
v -0.609376 -5.073133 -0.895923
v 0.489475 -4.207490 0.776477
v 0.743425 -4.219567 1.108572
v 0.759898 -4.238827 0.843075
v 0.323883 -4.301719 1.182629
v 0.590988 -4.350173 1.298035
v 0.302348 -4.358372 0.903210
v 0.786157 -4.511545 0.823487
v 0.631592 -4.591096 1.181720
v 0.611831 -4.613428 0.959661
v 0.459703 -4.535960 0.911470
v 0.113478 -5.101978 -0.270418
v 0.126826 -5.101978 -0.310995
v 0.191206 -5.101978 -0.279049
v 0.166967 -5.101978 -0.243876
v -1.313906 1.352365 -2.106286
vt 0.813943 0.266542
vt 0.803916 0.287561
vt 0.772358 0.260103
vt 0.833982 0.315304
vt 0.894641 0.281480
vt 0.855397 0.273190
vt 0.943231 0.297681
vt 0.863583 0.343789
vt 0.943693 0.437205
vt 0.887787 0.405125
vt 0.287516 0.425018
vt 0.370401 0.325347
vt 0.401525 0.371502
vt 0.238154 0.276707
vt 0.267101 0.367808
vt 0.207491 0.172107
vt 0.304076 0.243868
vt 0.181163 0.064131
vt 0.239467 0.158000
vt 0.811017 0.242534
vt 0.851001 0.224941
vt 0.962188 0.187541
vt 0.892982 0.207928
vt 0.999607 0.307803
vt 0.162349 0.390613
vt 0.163730 0.460655
vt 0.162354 0.287096
vt 0.177611 0.065067
vt 0.172664 0.175802
vt 0.795142 0.224033
vt 0.841812 0.147559
vt 0.818404 0.187340
vt 0.852352 0.140702
vt 0.109810 0.911753
vt 0.190931 0.999586
vt 0.092693 0.955629
vt 0.234251 0.876004
vt 0.216521 0.949548
vt 0.127133 0.852411
vt 0.234256 0.771634
vt 0.159244 0.758350
vt 0.226504 0.667341
vt 0.186174 0.659405
vt 0.219313 0.564948
vt 0.771785 0.217557
vt 0.770705 0.174795
vt 0.769083 0.132310
vt 0.874686 0.083027
vt 0.767451 0.000412
vt 0.764128 0.061642
vt -0.000020 0.874851
vt 0.094615 0.725999
vt 0.025376 0.807852
vt 0.215984 0.563842
vt 0.148504 0.639150
vt 0.748930 0.224749
vt 0.725141 0.190775
vt 0.642107 0.076988
vt 0.700279 0.154005
vt 0.434827 0.858432
vt 0.526707 0.957152
vt 0.392976 0.907436
vt 0.536087 0.773851
vt 0.548364 0.884119
vt 0.492966 0.666444
vt 0.463977 0.765909
vt 0.525843 0.563184
vt 0.548374 0.667767
vt 0.733739 0.243488
vt 0.694546 0.227469
vt 0.652376 0.208490
vt 0.319222 0.858522
vt 0.384100 0.954890
vt 0.290976 0.894528
vt 0.402849 0.735632
vt 0.348877 0.811653
vt 0.464848 0.651873
vt 0.731157 0.266931
vt 0.690431 0.274457
vt 0.651873 0.282666
vt 0.607743 0.293920
vt 0.548780 0.308313
vt 0.583721 0.185262
vt 0.234649 0.790488
vt 0.353068 0.685603
vt 0.270414 0.750038
vt 0.436205 0.620238
vt 0.524185 0.562397
vt 0.741442 0.287965
vt 0.683123 0.342677
vt 0.711868 0.315413
vt 0.639989 0.387152
vt 0.765997 0.815318
vt 0.811002 0.926405
vt 0.704960 0.860566
vt 0.898494 0.804263
vt 0.843200 0.886248
vt 0.848815 0.748960
vt 0.955580 0.721592
vt 0.996311 0.626695
vt 0.920996 0.692203
vt 0.760743 0.299962
vt 0.750044 0.338235
vt 0.739472 0.376160
vt 0.706333 0.490755
vt 0.721848 0.439780
vt 0.658070 0.744149
vt 0.806155 0.686757
vt 0.714987 0.719913
vt 0.899336 0.653505
vt 0.783860 0.299675
vt 0.794522 0.338499
vt 0.804471 0.376932
vt 0.819704 0.439456
vt 0.830842 0.490761
vt 0.626682 0.630390
vt 0.793104 0.616153
vt 0.691090 0.616149
vt 0.892973 0.616863
vt 0.995297 0.623314
vt 0.485889 0.294892
vt 0.355563 0.187898
vt 0.438841 0.247943
vt 0.264912 0.132543
vt 0.607359 0.668535
vt 0.626286 0.673244
vt 0.592542 0.681323
vt 0.568870 0.649899
vt 0.602726 0.649900
vt 0.568476 0.649899
vt 0.560936 0.657965
vt 0.554673 0.651551
vt 0.552690 0.665319
vt 0.560585 0.673031
vt 0.553991 0.679179
vt 0.567717 0.681443
vt 0.568475 0.665680
vt 0.593004 0.649506
vt 0.595330 0.616144
vt 0.601134 0.632993
vt 0.578280 0.631719
vt 0.578239 0.623798
vt 0.577666 0.639663
vt 0.608991 0.633432
vt 0.626288 0.621391
vt 0.617748 0.634359
vt 0.560402 0.616142
vt 0.621662 0.647153
vt 0.560873 0.645057
vt 0.179458 0.064869
vt 0.198035 0.499490
vt 0.901811 0.089405
vt 0.217547 0.564701
vt 0.214914 0.562382
vt 0.997814 0.627747
vt 0.999598 0.628175
vt 0.591568 0.431634
vt 0.995490 0.625097
vt 0.182615 0.062887
vn 0.0763 0.9860 -0.1485
vn -0.0525 0.9960 -0.0725
vn 0.0571 0.9761 -0.2098
vn -0.1970 0.9664 0.1654
vn -0.6149 0.6926 0.3771
vn -0.9218 -0.1169 0.3697
vn -0.7837 -0.5432 0.3013
vn -0.5473 -0.7729 0.3210
vn -0.6809 -0.5092 0.5265
vn 0.0733 0.9845 -0.1592
vn -0.1493 0.9750 -0.1648
vn 0.1190 0.9926 0.0220
vn -0.3906 0.9205 -0.0108
vn -0.8736 0.4858 0.0275
vn -0.9286 -0.3464 0.1330
vn -0.8007 -0.5984 0.0273
vn -0.6409 -0.7648 -0.0658
vn -0.8100 -0.4378 -0.3902
vn -0.0101 0.9954 0.0952
vn -0.0213 0.9959 0.0876
vn 0.0715 0.9970 0.0292
vn -0.3188 0.9199 -0.2283
vn -0.5510 0.7391 -0.3875
vn -0.7430 -0.4235 -0.5182
vn -0.6105 -0.5922 -0.5258
vn -0.4066 -0.7913 -0.4565
vn -0.9066 -0.4047 0.1192
vn -0.0248 0.9940 0.1070
vn -0.0429 0.9970 0.0642
vn -0.0838 0.9851 0.1502
vn -0.1750 0.9214 -0.3470
vn -0.5290 0.2877 -0.7984
vn -0.2969 -0.5307 -0.7939
vn -0.4326 -0.7303 -0.5287
vn -0.3298 -0.5638 -0.7572
vn -0.5382 -0.6549 -0.5305
vn -0.0615 0.9919 0.1108
vn -0.0469 0.9985 0.0268
vn -0.0013 0.9995 -0.0316
vn 0.0055 0.9761 -0.2172
vn 0.1020 0.3131 -0.9442
vn 0.1966 -0.5250 -0.8281
vn 0.3826 -0.7040 -0.5984
vn 0.1795 -0.7508 -0.6357
vn 0.8377 -0.3492 -0.4199
vn 0.0665 0.9827 0.1730
vn 0.1228 0.9860 0.1129
vn 0.1183 0.9903 0.0727
vn 0.1539 0.9791 -0.1326
vn 0.7802 0.2196 -0.5858
vn 0.6115 -0.6465 -0.4563
vn 0.4491 -0.6218 -0.6416
vn 0.4576 -0.6866 -0.5650
vn 0.3277 -0.4214 -0.8456
vn -0.0421 0.9991 -0.0076
vn 0.0374 0.9989 -0.0282
vn 0.0555 0.9985 -0.0025
vn -0.0202 0.9938 0.1094
vn 0.9377 0.3449 -0.0424
vn 0.9616 -0.2515 -0.1101
vn 0.7958 -0.5969 -0.1024
vn 0.7165 -0.6854 -0.1298
vn 0.5698 -0.4924 -0.6579
vn -0.0355 0.9811 -0.1902
vn 0.0413 0.9853 -0.1658
vn 0.1240 0.9875 -0.0977
vn -0.0106 0.9950 -0.0994
vn 0.9363 0.3444 0.0696
vn 0.7432 -0.6691 0.0059
vn 0.7533 -0.5777 0.3143
vn 0.8539 -0.5191 -0.0362
vn 0.7305 -0.6682 -0.1412
vn -0.0866 0.9892 -0.1181
vn -0.0247 0.9988 -0.0420
vn 0.0500 0.9987 0.0106
vn 0.0550 0.9970 -0.0541
vn 0.6288 0.2277 0.7435
vn 0.3700 -0.7048 0.6053
vn 0.6166 -0.6435 0.4535
vn 0.2780 -0.5520 0.7862
vn 0.0946 -0.6489 0.7550
vn -0.1965 0.9780 -0.0703
vn -0.2017 0.9709 -0.1295
vn -0.0645 0.9936 -0.0927
vn 0.0058 0.9809 0.1945
vn 0.0963 0.1881 0.9774
vn 0.0758 -0.2828 0.9562
vn 0.1253 -0.6654 0.7359
vn 0.1734 -0.6555 0.7350
vn -0.1873 -0.5757 0.7959
vn 0.2410 0.9705 0.0073
vn 0.1763 0.9744 0.1396
vn 0.0822 0.9944 -0.0668
vn -0.1979 0.9678 0.1559
vn -0.4316 0.6173 0.6578
vn -0.3074 -0.1203 0.9439
vn -0.2305 -0.6836 0.6925
vn -0.1521 -0.7662 0.6243
vn -0.5648 -0.5143 0.6454
vn 0.1142 0.7843 0.6098
vn -0.3908 -0.8211 0.4160
vn -0.5721 0.1806 -0.8001
vn 0.8590 -0.3157 -0.4031
vn 0.1081 -0.9860 0.1266
vn -0.7030 -0.7049 -0.0946
vn -0.2542 -0.0790 -0.9639
vn 0.5659 -0.3634 -0.7401
vn 0.2564 -0.1142 0.9598
vn -0.6770 0.2096 0.7055
vn -0.1596 0.9446 -0.2869
vn 0.7874 0.6158 -0.0286
vn 0.1303 0.9894 -0.0637
vn -0.0732 0.8477 0.5254
vn -0.1625 0.9737 0.1597
vn -0.6644 0.7408 -0.0990
vn 0.9943 0.0918 0.0550
vn 0.5265 -0.8493 0.0386
vn 0.9142 -0.2066 0.3486
vn 0.8153 -0.1345 0.5632
vn -0.4217 -0.4509 0.7867
vn -0.4823 -0.8663 0.1300
vn -0.6581 -0.7007 0.2756
vn -0.7394 -0.6464 0.1881
vn -0.3296 -0.3332 -0.8834
vn -0.1359 -0.7019 -0.6992
vn -0.2186 -0.3539 -0.9094
vn 0.2483 0.0932 -0.9642
vn -0.1332 0.9863 -0.0978
vn -0.1008 0.9885 0.1126
vn -0.1917 0.9690 0.1555
vn -0.8166 0.4750 0.3279
vn -0.9235 -0.1514 0.3524
vn -0.6516 -0.6546 0.3833
vn -0.4503 -0.8046 0.3871
vn -0.7296 -0.5265 0.4363
vn 0.0015 0.9998 0.0184
vn 0.0721 0.9973 -0.0111
vn -0.2801 0.9555 -0.0924
vn -0.7416 0.6630 0.1021
vn -0.9888 -0.1481 0.0163
vn -0.8490 -0.5233 -0.0725
vn -0.4514 -0.8132 -0.3673
vn -0.8497 -0.5265 -0.0274
vn -0.0373 0.9983 -0.0458
vn 0.0589 0.9978 0.0291
vn -0.3185 0.9203 -0.2272
vn -0.5598 0.7321 -0.3881
vn -0.6377 -0.5447 -0.5447
vn -0.5410 -0.6334 -0.5533
vn -0.9277 -0.3601 0.0982
vn -0.6334 -0.6390 -0.4365
vn -0.1336 0.9905 0.0330
vn -0.0461 0.9986 -0.0266
vn -0.2462 0.9686 -0.0347
vn -0.2384 0.7342 -0.6357
vn -0.5439 -0.1656 -0.8226
vn -0.3136 -0.6210 -0.7184
vn -0.5953 -0.4104 -0.6908
vn -0.2968 -0.6390 -0.7096
vn -0.0200 0.9979 0.0617
vn -0.0328 0.9995 -0.0001
vn 0.0893 0.9933 -0.0735
vn 0.2311 -0.0213 -0.9727
vn 0.4186 -0.1590 -0.8942
vn 0.2063 -0.5851 -0.7843
vn 0.8326 -0.2244 -0.5063
vn 0.1188 -0.7310 -0.6720
vn 0.0827 0.9902 0.1124
vn -0.0544 0.9922 0.1118
vn 0.1595 0.9782 -0.1329
vn 0.7802 0.2206 -0.5853
vn 0.5790 -0.2551 -0.7744
vn 0.5157 -0.5831 -0.6277
vn 0.1430 -0.7466 -0.6497
vn 0.5894 -0.4962 -0.6375
vn 0.0197 0.9998 0.0068
vn -0.0519 0.9919 0.1155
vn 0.1956 0.9783 -0.0686
vn 0.9729 0.2021 -0.1123
vn 0.9731 -0.1602 -0.1655
vn 0.7619 -0.6321 -0.1415
vn 0.6431 -0.3785 -0.6657
vn 0.7283 -0.6588 -0.1886
vn 0.0622 0.9910 -0.1185
vn 0.0578 0.9952 -0.0790
vn 0.0466 0.9980 -0.0419
vn 0.9027 0.4300 0.0122
vn 0.9167 -0.1483 0.3710
vn 0.9570 -0.2896 0.0185
vn 0.8756 -0.4747 -0.0897
vn 0.7146 -0.6588 0.2350
vn 0.0084 0.9991 -0.0406
vn 0.0433 0.9967 -0.0682
vn 0.0669 0.9835 0.1679
vn 0.4640 0.4643 0.7544
vn 0.7401 -0.2655 0.6179
vn 0.3777 -0.2935 0.8782
vn 0.1914 -0.4602 0.8670
vn 0.4823 -0.6436 0.5943
vn -0.0576 0.9979 -0.0281
vn -0.0203 0.9989 -0.0417
vn 0.0048 0.9811 0.1934
vn 0.0772 0.2269 0.9709
vn 0.1484 -0.1603 0.9759
vn 0.1692 -0.6956 0.6983
vn -0.1764 -0.4803 0.8592
vn 0.0845 -0.6436 0.7607
vn 0.0887 0.9928 -0.0803
vn -0.1530 0.9862 0.0638
vn -0.1947 0.9686 0.1544
vn -0.3037 0.1932 0.9330
vn -0.2808 -0.1679 0.9450
vn -0.2011 -0.6557 0.7278
vn -0.5322 -0.6221 0.5742
vn -0.3681 -0.5604 0.7419
usemtl ground
s off
f 1/1/1 2/2/1 3/3/1
f 1/1/2 4/4/2 2/2/2
f 5/5/3 4/4/3 6/6/3
f 7/7/4 8/8/4 5/5/4
f 7/7/5 9/9/5 10/10/5
f 11/11/6 12/12/6 9/13/6
f 13/14/7 12/12/7 14/15/7
f 15/16/8 16/17/8 13/14/8
f 15/16/9 17/18/9 18/19/9
f 19/20/10 1/1/10 3/3/10
f 19/20/11 6/6/11 1/1/11
f 20/21/12 5/5/12 6/6/12
f 21/22/13 5/5/13 22/23/13
f 21/22/14 11/24/14 7/7/14
f 23/25/15 11/11/15 24/26/15
f 25/27/16 14/15/16 23/25/16
f 25/27/17 15/16/17 13/14/17
f 26/28/18 15/16/18 27/29/18
f 28/30/19 19/20/19 3/3/19
f 28/30/20 20/21/20 19/20/20
f 29/31/21 20/21/21 30/32/21
f 121/33/22 21/22/22 22/23/22
f 31/34/23 21/35/23 32/36/23
f 31/34/24 23/37/24 24/38/24
f 33/39/25 25/40/25 23/37/25
f 34/41/26 27/42/26 25/40/26
f 35/43/27 26/44/27 27/42/27
f 36/45/28 28/30/28 3/3/28
f 37/46/29 28/30/29 36/45/29
f 37/46/30 29/31/30 30/32/30
f 38/47/31 32/48/31 29/31/31
f 39/49/32 32/48/32 40/50/32
f 39/51/33 33/39/33 31/34/33
f 41/52/34 33/39/34 42/53/34
f 41/52/35 35/43/35 34/41/35
f 43/54/36 35/43/36 44/55/36
f 45/56/37 36/45/37 3/3/37
f 46/57/38 36/45/38 45/56/38
f 46/57/39 38/47/39 37/46/39
f 47/58/40 38/47/40 48/59/40
f 47/58/41 39/49/41 40/50/41
f 49/60/42 39/61/42 50/62/42
f 49/60/43 41/63/43 42/64/43
f 51/65/44 41/63/44 52/66/44
f 53/67/45 44/68/45 51/65/45
f 54/69/46 45/56/46 3/3/46
f 54/69/47 46/57/47 45/56/47
f 55/70/48 48/59/48 46/57/48
f 56/71/49 47/58/49 48/59/49
f 57/72/50 47/73/50 58/74/50
f 57/72/51 49/60/51 50/62/51
f 59/75/52 49/60/52 60/76/52
f 61/77/53 52/66/53 59/75/53
f 61/77/54 53/67/54 51/65/54
f 62/78/55 54/69/55 3/3/55
f 63/79/56 54/69/56 62/78/56
f 64/80/57 55/70/57 63/79/57
f 65/81/58 56/71/58 64/80/58
f 66/82/59 58/83/59 65/81/59
f 66/84/60 60/76/60 57/72/60
f 67/85/61 60/76/61 68/86/61
f 67/85/62 61/77/62 59/75/62
f 69/87/63 70/88/63 61/77/63
f 71/89/64 62/78/64 3/3/64
f 71/89/65 63/79/65 62/78/65
f 72/90/66 63/79/66 73/91/66
f 72/90/67 65/81/67 64/80/67
f 74/92/68 66/82/68 65/81/68
f 75/93/69 66/94/69 76/95/69
f 75/93/70 67/96/70 68/97/70
f 77/98/71 69/99/71 67/96/71
f 78/100/72 69/99/72 79/101/72
f 80/102/73 71/89/73 3/3/73
f 81/103/74 71/89/74 80/102/74
f 81/103/75 72/90/75 73/91/75
f 82/104/76 74/92/76 72/90/76
f 83/105/77 74/92/77 84/106/77
f 83/107/78 75/93/78 76/95/78
f 85/108/79 75/93/79 86/109/79
f 87/110/80 77/98/80 85/108/80
f 87/110/81 78/100/81 79/101/81
f 88/111/82 80/102/82 3/3/82
f 89/112/83 80/102/83 88/111/83
f 90/113/84 81/103/84 89/112/84
f 91/114/85 82/104/85 90/113/85
f 92/115/86 84/106/86 91/114/86
f 92/116/87 86/109/87 83/107/87
f 93/117/88 86/109/88 94/118/88
f 95/119/89 85/108/89 93/117/89
f 96/120/90 87/110/90 95/119/90
f 2/2/91 88/111/91 3/3/91
f 4/4/92 88/111/92 2/2/92
f 4/4/93 90/113/93 89/112/93
f 8/8/94 91/114/94 90/113/94
f 9/9/95 91/114/95 10/10/95
f 12/12/96 92/121/96 9/13/96
f 12/12/97 93/122/97 94/123/97
f 18/19/98 93/122/98 16/17/98
f 17/18/99 95/124/99 18/19/99
f 97/125/100 98/126/100 99/127/100
f 98/128/101 100/129/101 99/127/101
f 97/125/102 100/129/102 98/126/102
f 99/127/103 100/129/103 97/125/103
f 101/130/104 102/131/104 103/132/104
f 102/131/105 104/133/105 103/132/105
f 104/133/106 105/134/106 103/135/106
f 105/134/107 101/136/107 103/135/107
f 102/131/108 101/130/108 106/137/108
f 104/133/109 102/131/109 106/137/109
f 105/134/110 104/133/110 106/137/110
f 101/136/111 105/134/111 106/137/111
f 107/138/112 108/139/112 109/140/112
f 110/141/113 111/142/113 108/139/113
f 108/139/114 107/138/114 110/141/114
f 112/143/115 110/141/115 107/138/115
f 108/139/116 113/144/116 109/140/116
f 114/145/117 115/146/117 113/144/117
f 113/144/118 108/139/118 114/145/118
f 111/142/119 114/147/119 108/139/119
f 110/141/120 114/147/120 111/142/120
f 116/148/121 115/146/121 114/145/121
f 114/147/122 110/141/122 116/149/122
f 112/143/123 116/149/123 110/141/123
f 107/138/124 116/149/124 112/143/124
f 113/144/125 115/146/125 116/148/125
f 116/148/126 107/138/126 113/144/126
f 109/140/127 113/144/127 107/138/127
f 1/1/128 6/6/128 4/4/128
f 5/5/129 8/8/129 4/4/129
f 7/7/130 10/10/130 8/8/130
f 7/7/131 11/24/131 9/9/131
f 11/11/132 14/15/132 12/12/132
f 13/14/133 16/17/133 12/12/133
f 15/16/134 18/19/134 16/17/134
f 15/16/135 117/150/135 17/18/135
f 19/20/136 20/21/136 6/6/136
f 20/21/137 22/23/137 5/5/137
f 21/22/138 7/7/138 5/5/138
f 21/151/139 24/26/139 11/11/139
f 23/25/140 14/15/140 11/11/140
f 25/27/141 13/14/141 14/15/141
f 25/27/142 27/29/142 15/16/142
f 26/28/143 117/150/143 15/16/143
f 28/30/144 30/32/144 20/21/144
f 29/31/145 22/23/145 20/21/145
f 121/33/146 32/152/146 21/22/146
f 31/34/147 24/38/147 21/35/147
f 31/34/148 33/39/148 23/37/148
f 33/39/149 34/41/149 25/40/149
f 34/41/150 35/43/150 27/42/150
f 35/43/151 118/153/151 26/44/151
f 37/46/152 30/32/152 28/30/152
f 37/46/153 38/47/153 29/31/153
f 38/47/154 40/50/154 32/48/154
f 39/51/155 31/34/155 32/36/155
f 39/51/156 42/53/156 33/39/156
f 41/52/157 34/41/157 33/39/157
f 41/52/158 44/55/158 35/43/158
f 43/54/159 118/153/159 35/43/159
f 46/57/160 37/46/160 36/45/160
f 46/57/161 48/59/161 38/47/161
f 47/58/162 40/50/162 38/47/162
f 47/73/163 50/62/163 39/61/163
f 49/60/164 42/64/164 39/61/164
f 49/60/165 52/66/165 41/63/165
f 51/65/166 44/68/166 41/63/166
f 53/154/167 43/54/167 44/55/167
f 54/69/168 55/70/168 46/57/168
f 55/70/169 56/71/169 48/59/169
f 56/71/170 58/83/170 47/58/170
f 57/72/171 50/62/171 47/73/171
f 57/72/172 60/76/172 49/60/172
f 59/75/173 52/66/173 49/60/173
f 61/77/174 51/65/174 52/66/174
f 61/77/175 70/88/175 53/67/175
f 63/79/176 55/70/176 54/69/176
f 64/80/177 56/71/177 55/70/177
f 65/81/178 58/83/178 56/71/178
f 66/84/179 57/72/179 58/74/179
f 66/84/180 68/86/180 60/76/180
f 67/85/181 59/75/181 60/76/181
f 67/85/182 69/87/182 61/77/182
f 69/99/183 119/155/183 70/156/183
f 71/89/184 73/91/184 63/79/184
f 72/90/185 64/80/185 63/79/185
f 72/90/186 74/92/186 65/81/186
f 74/92/187 76/157/187 66/82/187
f 75/93/188 68/97/188 66/94/188
f 75/93/189 77/98/189 67/96/189
f 77/98/190 79/101/190 69/99/190
f 78/100/191 119/155/191 69/99/191
f 81/103/192 73/91/192 71/89/192
f 81/103/193 82/104/193 72/90/193
f 82/104/194 84/106/194 74/92/194
f 83/105/195 76/157/195 74/92/195
f 83/107/196 86/109/196 75/93/196
f 85/108/197 77/98/197 75/93/197
f 87/110/198 79/101/198 77/98/198
f 87/110/199 120/158/199 78/100/199
f 89/112/200 81/103/200 80/102/200
f 90/113/201 82/104/201 81/103/201
f 91/114/202 84/106/202 82/104/202
f 92/115/203 83/105/203 84/106/203
f 92/116/204 94/118/204 86/109/204
f 93/117/205 85/108/205 86/109/205
f 95/119/206 87/110/206 85/108/206
f 96/120/207 120/158/207 87/110/207
f 4/4/208 89/112/208 88/111/208
f 4/4/209 8/8/209 90/113/209
f 8/8/210 10/10/210 91/114/210
f 9/9/211 92/115/211 91/114/211
f 12/12/212 94/123/212 92/121/212
f 12/12/213 16/17/213 93/122/213
f 18/19/214 95/124/214 93/122/214
f 17/18/215 96/159/215 95/124/215
