# Blender v2.79 (sub 0) OBJ File: ''
# www.blender.org
mtllib Mill.mtl
o Mill
v -0.342504 16.696899 2.624506
v -8.416300 18.253212 -13.047639
v -18.204763 16.696911 -31.251287
v 33.533287 16.696903 -15.237752
v 0.842498 42.950531 -1.204101
v 14.486029 42.950542 -45.284920
v 15.671029 16.696915 -49.113541
v -14.376146 42.950539 -30.066275
v -9.467501 76.964424 -28.844627
v 12.721142 45.446323 -40.544418
v -9.467502 45.446316 -28.844637
v -3.919184 76.964409 -17.460108
v -9.635643 76.964424 -28.301376
v -9.635644 45.446316 -28.301388
v 13.264392 45.446323 -40.376274
v 13.264393 76.964424 -40.376266
v 18.980850 76.964424 -29.534994
v 2.064136 45.446308 -6.112744
v 2.064137 76.964409 -6.112736
v -2.535376 33.921871 -5.520711
v -6.620603 33.921879 -13.268348
v 24.796030 76.964409 -17.644371
v 2.607385 45.446308 -5.944602
v 24.796028 45.446316 -17.644382
v 24.964170 45.446316 -18.187632
v -3.731902 18.253208 -4.163672
v 29.704674 42.950535 -16.422745
v 12.721143 76.964424 -40.544411
v 2.607386 76.964409 -5.944592
v 24.964172 76.964409 -18.187620
v 1.064800 45.446308 -5.585807
v 1.064801 76.964409 -5.585799
v -4.918520 76.964409 -16.933170
v -10.634979 76.964424 -27.774441
v -0.649289 33.691711 -6.515220
v -6.530212 18.023048 -14.042147
v -1.845814 18.023045 -5.158181
v 21.826418 94.962418 -31.035419
v 0.906554 79.441177 -1.411042
v 29.497723 79.441177 -16.486788
v 26.677998 43.914452 -17.359535
v 13.549237 43.914459 -42.258244
v -11.349470 43.914452 -29.129482
v -10.634979 45.446316 -27.774452
v 3.134322 45.446308 -4.945266
v 25.322966 45.446316 -16.645046
v 25.322966 76.964409 -16.645035
v 3.134323 76.964409 -4.945258
v -9.994438 45.446316 -29.843973
v 12.194205 45.446323 -41.543755
v 14.421976 79.441193 -45.077961
v -6.764750 94.962402 -15.959674
v 26.677998 78.496277 -17.359526
v 1.779291 78.496277 -4.230766
v 19.980186 78.496292 -30.061932
v -4.918520 78.496277 -16.933170
v 13.549238 78.496292 -42.258236
v -14.169193 79.441193 -30.002211
v -11.349469 78.496292 -29.129473
v -9.994437 76.964424 -29.843962
v 12.194206 76.964424 -41.543747
v 25.963507 45.446316 -18.714567
v 14.263728 76.964424 -40.903206
v 25.963509 76.964409 -18.714558
v 1.779290 43.914444 -4.230777
v 14.263727 45.446323 -40.903214
v 19.980186 76.964424 -30.061932
v -4.734515 33.691719 -14.262856
vt 1.000000 0.000000
vt 0.000000 1.000000
vt 0.000000 0.000000
vt 0.000000 0.000000
vt 1.000000 1.000000
vt 0.000000 1.000000
vt 1.000000 0.000000
vt 0.000000 1.000000
vt 0.000000 0.000000
vt 0.831653 0.831653
vt 0.169820 0.169820
vt 0.830180 0.169820
vt 0.931338 0.508768
vt 0.068662 0.068662
vt 0.931338 0.068662
vt 1.000000 0.000000
vt 0.000000 1.000000
vt 0.000000 0.000000
vt 0.931338 0.068662
vt 0.000000 0.000000
vt 1.000000 0.000000
vt 0.931338 0.931338
vt 1.000000 1.000000
vt 0.068662 0.931338
vt 0.000000 1.000000
vt 1.000000 0.000000
vt 0.000000 1.000000
vt 0.000000 0.000000
vt 1.000000 0.000000
vt 0.000000 1.000000
vt 0.000000 0.000000
vt 1.000000 0.000000
vt 0.000000 1.000000
vt 0.000000 0.000000
vt 1.000000 0.000000
vt 0.000000 1.000000
vt 0.000000 0.000000
vt 1.000000 0.000000
vt 0.000000 1.000000
vt 0.000000 0.000000
vt 0.000000 0.000000
vt 1.000000 1.000000
vt 0.000000 1.000000
vt 0.931338 0.931338
vt 0.068662 0.508768
vt 0.000000 0.000000
vt 1.000000 1.000000
vt 0.000000 1.000000
vt 0.000000 0.000000
vt 1.000000 1.000000
vt 0.000000 1.000000
vt 1.000000 0.000000
vt 0.000000 1.000000
vt 0.000000 0.000000
vt 0.931338 0.508768
vt 0.931338 0.931338
vt 1.000000 0.000000
vt 0.000000 0.000000
vt 0.000000 0.000000
vt 1.000000 1.000000
vt 0.000000 1.000000
vt 1.000000 0.000000
vt 0.000000 1.000000
vt 0.000000 0.000000
vt 1.000000 0.000000
vt 0.000000 1.000000
vt 0.000000 0.000000
vt 1.000000 0.000000
vt 0.000000 1.000000
vt 0.000000 0.000000
vt 0.000000 0.000000
vt 1.000000 1.000000
vt 0.000000 1.000000
vt 0.000000 0.000000
vt 1.000000 1.000000
vt 0.000000 1.000000
vt 0.000000 0.000000
vt 1.000000 1.000000
vt 0.000000 1.000000
vt 1.000000 0.000000
vt 0.000000 1.000000
vt 0.000000 0.000000
vt 0.000000 0.000000
vt 1.000000 1.000000
vt 0.000000 1.000000
vt 1.000000 0.000000
vt 0.000000 1.000000
vt 0.000000 0.000000
vt 1.000000 1.000000
vt 0.000000 1.000000
vt 1.000000 0.000000
vt 0.000000 1.000000
vt 0.000000 0.000000
vt 1.000000 1.000000
vt 1.000000 0.000000
vt 0.000000 1.000000
vt 0.000000 0.000000
vt 1.000000 0.000000
vt 0.000000 1.000000
vt 1.000000 1.000000
vt 1.000000 0.000000
vt 0.000000 0.000000
vt 1.000000 1.000000
vt 1.000000 0.000000
vt 1.000000 0.000000
vt 1.000000 0.000000
vt 1.000000 1.000000
vt 0.068662 0.910524
vt 0.068662 0.908385
vt 0.068662 0.931338
vt 1.000000 0.000000
vt 1.000000 1.000000
vt 1.000000 0.000000
vt 0.000000 1.000000
vt 0.000000 0.000000
vt 1.000000 0.000000
vt 0.000000 1.000000
vt 0.000000 0.000000
vt 0.000000 0.000000
vt 1.000000 1.000000
vt 0.000000 1.000000
vt 0.000000 0.000000
vt 1.000000 1.000000
vt 0.000000 1.000000
vt 1.000000 0.000000
vt 0.000000 1.000000
vt 0.000000 0.000000
vt 0.000000 0.000000
vt 1.000000 1.000000
vt 0.000000 1.000000
vt 1.000000 1.000000
vt 1.000000 0.000000
vt 1.000000 1.000000
vt 0.168347 0.831653
vt 1.000000 1.000000
vt 0.068662 0.068662
vt 1.000000 1.000000
vt 1.000000 1.000000
vt 1.000000 1.000000
vt 1.000000 1.000000
vt 1.000000 1.000000
vt 1.000000 0.000000
vt 0.068662 0.931338
vt 1.000000 0.000000
vt 1.000000 0.000000
vt 1.000000 1.000000
vt 1.000000 0.000000
vt 1.000000 1.000000
vt 1.000000 1.000000
vt 1.000000 1.000000
vt 1.000000 0.000000
vt 1.000000 0.000000
vt 1.000000 0.000000
vt 1.000000 1.000000
vt 1.000000 0.000000
vt 1.000000 1.000000
vt 1.000000 0.000000
vt 1.000000 1.000000
vt 1.000000 0.000000
vt 1.000000 1.000000
vt 1.000000 1.000000
vt 1.000000 0.000000
vt 1.000000 1.000000
vt 1.000000 0.000000
vt 1.000000 1.000000
vt 1.000000 1.000000
vt 1.000000 1.000000
vt 1.000000 0.000000
vt 1.000000 1.000000
vt 1.000000 0.000000
vt 1.000000 1.000000
vt 1.000000 1.000000
vt 1.000000 0.000000
vt 1.000000 0.000000
vt 1.000000 1.000000
vt 1.000000 0.000000
vt 0.084817 0.084817
vt 1.000000 0.000000
vt 0.000000 1.000000
vt 0.000000 0.000000
vt 0.000000 0.000000
vt 1.000000 1.000000
vt 0.000000 0.000000
vt 1.000000 0.000000
vt 0.110357 0.931338
vt 0.889643 0.931338
vt 0.110357 0.931338
vt 0.068662 0.514406
vt 0.068662 0.889829
vt 0.068662 0.897904
vt 0.931338 0.897904
vt 0.931338 0.889829
vt 0.931338 0.514406
vt 0.068662 0.110494
vt 0.068662 0.117557
vt 1.000000 0.000000
vt 1.000000 0.000000
vt 0.000000 0.000000
vt 1.000000 1.000000
vt 0.889643 0.068662
vt 0.110357 0.068662
vt 0.889643 0.068662
vt 0.931338 0.110494
vt 0.084817 0.915183
vt 1.000000 1.000000
vt 0.000000 1.000000
vt 0.000000 1.000000
vt 0.889643 0.931338
vt 1.000000 1.000000
vt 0.110357 0.068662
vt 0.931338 0.117557
vn -0.7800 -0.5774 -0.2414
vn -0.9407 0.3015 0.1552
vn -0.9407 -0.3015 0.1552
vn -0.6255 -0.7071 0.3298
vn -0.2414 -0.5774 0.7800
vn -0.6595 -0.3015 0.6886
vn -0.8287 -0.5223 -0.2011
vn -0.1769 0.6250 0.7603
vn -0.7273 0.6250 -0.2836
vn 0.5392 0.7898 -0.2924
vn -0.2001 -0.1995 0.9593
vn 0.9046 -0.1995 0.3768
vn 0.2524 -0.5211 -0.8154
vn -0.2524 -0.5211 0.8154
vn -0.8154 -0.5211 -0.2524
vn 0.6087 0.7707 0.1884
vn -0.2460 0.5547 0.7949
vn 0.7949 0.5547 0.2460
vn 0.1884 0.7707 -0.6087
vn 0.2460 0.5547 -0.7949
vn -0.6087 0.7707 -0.1884
vn -0.7949 0.5547 -0.2460
vn -0.2414 0.5774 0.7800
vn -0.6595 0.3015 0.6886
vn -0.2414 0.5773 0.7800
vn 0.6886 0.3015 0.6595
vn 0.1552 0.3015 0.9407
vn 0.1552 -0.3015 0.9407
vn 0.7800 -0.5773 0.2414
vn 0.6886 -0.3015 0.6595
vn 0.7800 0.5774 0.2414
vn -0.1552 0.3015 -0.9407
vn -0.7800 0.5774 -0.2414
vn -0.6886 0.3015 -0.6595
vn 0.2022 -0.2063 -0.9574
vn -0.5459 0.7898 0.2797
vn 0.6179 -0.7627 0.1912
vn -0.1912 -0.7627 0.6178
vn 0.8805 -0.1011 -0.4632
vn -0.8796 -0.1011 0.4649
vn 0.1912 -0.7627 -0.6179
vn -0.9042 -0.2063 -0.3740
vn -0.6178 -0.7627 -0.1912
vn 0.2414 -0.5774 -0.7800
vn -0.1552 -0.3015 -0.9407
vn -0.6886 -0.3015 -0.6595
vn -0.9123 0.3842 0.1416
vn -0.6323 0.3842 0.6728
vn -0.9621 -0.2165 0.1656
vn -0.6802 -0.2165 0.7004
vn 0.6595 0.3015 -0.6886
vn 0.9407 -0.3015 -0.1552
vn 0.6595 -0.3015 -0.6886
vn -0.1884 0.7707 0.6087
vn 0.9407 0.3015 -0.1552
vn 0.7800 -0.5774 0.2414
vn 0.6255 -0.7071 -0.3298
vn 0.2414 0.5774 -0.7800
vn -0.3022 -0.5223 0.7974
vn 0.8154 -0.5211 0.2524
vn 0.2414 0.5773 -0.7800
usemtl facade
s 1
f 19/1/1 31/2/2 32/3/3
f 33/4/4 19/5/1 32/6/3
f 13/7/5 33/8/4 34/9/6
f 35/10/7 36/11/8 37/12/9
f 38/13/10 39/14/11 40/15/12
f 7/16/13 1/17/14 3/18/15
f 41/19/16 5/20/17 27/21/18
f 42/22/19 27/21/18 6/23/20
f 43/24/21 6/23/20 8/25/22
f 5/20/17 43/24/21 8/25/22
f 14/26/23 34/27/6 44/28/24
f 24/29/25 45/30/26 46/31/27
f 22/32/5 46/33/27 47/34/28
f 29/35/29 47/36/28 48/37/30
f 23/38/31 48/39/30 45/40/26
f 49/41/32 10/42/33 50/43/34
f 51/44/35 52/45/36 38/13/10
f 53/46/37 39/47/11 54/48/38
f 55/49/39 40/50/12 53/51/37
f 39/52/11 56/53/40 54/54/38
f 51/44/35 55/55/39 57/56/41
f 58/57/42 57/56/41 59/58/43
f 56/59/40 58/60/42 59/61/43
f 9/62/44 49/63/32 60/64/45
f 28/65/1 60/66/45 61/67/46
f 10/68/33 61/69/46 50/70/34
f 26/71/47 36/72/8 2/73/48
f 20/74/49 37/75/9 26/76/47
f 21/77/50 35/78/7 20/79/49
f 36/80/8 21/81/50 2/82/48
f 42/83/19 62/84/51 41/85/16
f 63/86/52 42/87/19 57/88/41
f 55/49/39 63/89/52 57/90/41
f 64/91/53 55/92/39 53/46/37
f 41/93/16 64/94/53 53/51/37
f 31/95/2 43/96/21 65/97/54
f 32/98/3 65/99/54 54/54/38
f 56/59/40 32/100/3 54/48/38
f 34/101/6 56/53/40 59/58/43
f 43/102/21 34/103/6 59/61/43
f 46/104/27 65/99/54 41/93/16
f 47/105/28 41/85/16 53/46/37
f 48/106/30 53/51/37 54/54/38
f 65/97/54 48/107/30 54/48/38
f 49/108/32 42/87/19 43/24/21
f 60/109/45 43/24/21 59/110/43
f 61/111/46 59/110/43 57/88/41
f 42/83/19 61/112/46 57/90/41
f 15/113/31 62/114/51 66/115/55
f 16/116/56 66/117/55 63/118/52
f 67/119/57 16/120/56 63/121/52
f 64/122/53 17/123/57 67/124/57
f 25/125/58 64/126/53 62/127/51
f 31/128/2 14/129/23 44/130/24
f 19/1/1 18/131/33 31/2/2
f 33/4/4 12/132/4 19/5/1
f 13/7/5 12/133/4 33/8/4
f 35/10/7 68/134/59 36/11/8
f 38/13/10 52/45/36 39/14/11
f 7/16/13 4/135/60 1/17/14
f 41/19/16 65/136/54 5/20/17
f 42/22/19 41/19/16 27/21/18
f 43/24/21 42/22/19 6/23/20
f 5/20/17 65/136/54 43/24/21
f 14/26/23 13/137/5 34/27/6
f 24/29/25 23/138/31 45/30/26
f 22/32/5 24/139/25 46/33/27
f 29/35/29 22/140/5 47/36/28
f 23/38/31 29/141/29 48/39/30
f 49/41/32 11/142/61 10/42/33
f 51/44/35 58/143/42 52/45/36
f 53/46/37 40/144/12 39/47/11
f 55/49/39 38/145/10 40/50/12
f 39/52/11 52/146/36 56/53/40
f 51/44/35 38/13/10 55/55/39
f 58/57/42 51/44/35 57/56/41
f 56/59/40 52/147/36 58/60/42
f 9/62/44 11/148/61 49/63/32
f 28/65/1 9/149/44 60/66/45
f 10/68/33 28/150/1 61/69/46
f 26/71/47 37/151/9 36/72/8
f 20/74/49 35/152/7 37/75/9
f 21/77/50 68/153/59 35/78/7
f 36/80/8 68/154/59 21/81/50
f 42/83/19 66/155/55 62/84/51
f 63/86/52 66/156/55 42/87/19
f 55/49/39 67/157/57 63/89/52
f 64/91/53 67/158/57 55/92/39
f 41/93/16 62/159/51 64/94/53
f 31/95/2 44/160/24 43/96/21
f 32/98/3 31/161/2 65/99/54
f 56/59/40 33/162/4 32/100/3
f 34/101/6 33/163/4 56/53/40
f 43/102/21 44/164/24 34/103/6
f 46/104/27 45/165/26 65/99/54
f 47/105/28 46/166/27 41/85/16
f 48/106/30 47/167/28 53/51/37
f 65/97/54 45/168/26 48/107/30
f 49/108/32 50/169/34 42/87/19
f 60/109/45 49/108/32 43/24/21
f 61/111/46 60/109/45 59/110/43
f 42/83/19 50/170/34 61/112/46
f 15/113/31 25/171/58 62/114/51
f 16/116/56 15/172/31 66/117/55
f 67/119/57 17/173/57 16/120/56
f 64/122/53 30/174/44 17/123/57
f 25/125/58 30/175/44 64/126/53
f 31/128/2 18/176/33 14/129/23
usemtl facade1
f 1/17/14 2/177/48 3/18/15
f 4/178/60 5/179/17 1/180/14
f 6/23/20 4/181/60 7/16/13
f 8/182/22 7/183/13 3/184/15
f 9/185/44 10/186/33 11/187/61
f 12/188/4 13/189/5 14/190/23
f 15/191/31 16/192/56 17/193/57
f 12/188/4 18/194/33 19/195/1
f 20/196/49 1/17/14 5/20/17
f 21/197/50 5/179/17 8/198/22
f 3/18/15 21/199/50 8/25/22
f 22/200/5 23/201/31 24/202/25
f 17/193/57 25/203/58 15/191/31
f 1/17/14 26/204/47 2/177/48
f 4/178/60 27/205/18 5/179/17
f 6/23/20 27/206/18 4/181/60
f 8/182/22 6/207/20 7/183/13
f 9/185/44 28/208/1 10/186/33
f 12/188/4 14/190/23 18/194/33
f 20/196/49 26/204/47 1/17/14
f 21/197/50 20/209/49 5/179/17
f 3/18/15 2/177/48 21/199/50
f 22/200/5 29/210/29 23/201/31
f 17/193/57 30/211/44 25/203/58
