# Blender v2.79 (sub 0) OBJ File: ''
# www.blender.org
mtllib mill_body.mtl
o Mill
v -10.937265 20.094954 11.805256
v -12.067010 -11.423148 11.805142
v -12.067016 20.094954 11.805154
v -12.065853 20.094955 -1.023056
v -10.934992 20.094973 -13.279015
v -12.064743 20.094973 -13.279119
v -13.149587 -23.177744 10.183432
v -14.840085 -38.846405 0.782255
v -14.840995 -38.846413 10.825582
v 18.169308 38.092964 -1.020306
v -14.154510 22.571720 15.423994
v 18.167820 22.571724 15.426926
v 21.158169 -40.172535 -19.882292
v -17.141903 -40.172558 18.410830
v -17.138428 -40.172543 -19.885771
v 16.080849 -12.955003 13.339558
v -14.307704 -13.918925 15.577149
v 18.320999 -13.918920 15.580112
v 16.083405 -12.954990 -14.808441
v 18.323959 -13.918907 -17.048590
v -12.064595 -12.955001 -14.810995
v -14.304742 -13.918914 -17.051550
v -10.934985 -11.423137 -13.279030
v -12.064734 -11.423137 -13.279133
v 14.549088 -11.423139 12.209667
v -10.535286 -11.423148 13.337145
v 14.548987 -11.423139 13.339418
v 14.549084 20.094955 12.209684
v 14.548980 20.094955 13.339434
v -10.535190 20.094954 12.207408
v -10.535291 20.094954 13.337156
v -10.535183 -11.423148 12.207394
v -10.532733 -11.423137 -14.810858
v 14.551440 -11.423127 -13.678832
v 14.551543 -11.423127 -14.808581
v 18.170757 22.571743 -16.895407
v -14.153020 38.092949 -1.023240
v 16.080841 21.626823 13.339571
v -12.067155 21.626822 13.337018
v 16.082146 21.626841 -1.020503
v -12.065853 21.626823 -1.023056
v 16.083401 21.626842 -14.808430
v -14.151578 22.571741 -16.898336
v -12.064603 21.626841 -14.810982
v -10.532840 20.094973 -13.681093
v -10.532737 20.094973 -14.810842
v 14.551435 20.094975 -13.678822
v 14.551538 20.094975 -14.808571
v -16.973221 -38.616249 10.825388
v -16.972305 -38.616241 0.782060
v -15.281810 -22.947584 10.183238
v -15.281015 -22.947577 1.424532
v 16.080990 -11.423139 11.807694
v 16.083263 20.094975 -13.276568
v 16.080982 20.094955 11.807708
v -12.067149 -12.955012 13.337004
v 14.953517 -11.423127 -13.276679
v 16.083267 -11.423127 -13.276579
v 14.953511 20.094975 -13.276669
v 16.082146 20.094973 -1.020503
v 14.952396 20.094973 -1.020605
v 14.951240 -11.423139 11.807591
v -10.937261 -11.423148 11.805243
v -10.936103 20.094955 -1.022955
v -13.148793 -23.177736 1.424727
v 21.154694 -40.172550 18.414305
v -10.532834 -11.423137 -13.681107
v 14.951233 20.094955 11.807606
vt 0.000000 1.000000
vt 0.084817 0.084817
vt 0.000000 0.000000
vt 1.000000 0.000000
vt 0.000000 1.000000
vt 0.000000 0.000000
vt 1.000000 1.000000
vt 0.000000 0.000000
vt 1.000000 0.000000
vt 1.000000 1.000000
vt 0.000000 0.000000
vt 1.000000 0.000000
vt 0.110357 0.931338
vt 0.889643 0.931338
vt 0.110357 0.931338
vt 0.068662 0.514406
vt 0.068662 0.889829
vt 0.068662 0.897904
vt 0.931338 0.897904
vt 0.931338 0.889829
vt 0.931338 0.514406
vt 0.068662 0.110494
vt 0.068662 0.117557
vt 1.000000 0.000000
vt 0.000000 0.000000
vt 1.000000 0.000000
vt 0.000000 0.000000
vt 1.000000 1.000000
vt 0.000000 1.000000
vt 0.889643 0.068662
vt 0.110357 0.068662
vt 0.889643 0.068662
vt 0.931338 0.110494
vt 0.084817 0.915183
vt 1.000000 1.000000
vt 0.000000 1.000000
vt 0.000000 1.000000
vt 0.889643 0.931338
vt 1.000000 1.000000
vt 0.110357 0.068662
vt 0.931338 0.117557
vt 1.000000 0.000000
vt 0.000000 1.000000
vt 0.000000 0.000000
vt 0.000000 0.000000
vt 1.000000 1.000000
vt 0.000000 1.000000
vt 1.000000 0.000000
vt 0.000000 1.000000
vt 0.000000 0.000000
vt 0.831653 0.831653
vt 0.169820 0.169820
vt 0.830180 0.169820
vt 0.931338 0.508768
vt 0.068662 0.068662
vt 0.931338 0.068662
vt 0.931338 0.068662
vt 1.000000 0.000000
vt 0.931338 0.931338
vt 0.068662 0.931338
vt 1.000000 0.000000
vt 0.000000 1.000000
vt 0.000000 0.000000
vt 1.000000 0.000000
vt 0.000000 1.000000
vt 0.000000 0.000000
vt 1.000000 0.000000
vt 0.000000 1.000000
vt 0.000000 0.000000
vt 1.000000 0.000000
vt 0.000000 1.000000
vt 0.000000 0.000000
vt 1.000000 0.000000
vt 0.000000 1.000000
vt 0.000000 0.000000
vt 0.000000 0.000000
vt 1.000000 1.000000
vt 0.000000 1.000000
vt 0.931338 0.931338
vt 0.068662 0.508768
vt 0.000000 0.000000
vt 1.000000 1.000000
vt 0.000000 1.000000
vt 0.000000 0.000000
vt 1.000000 1.000000
vt 0.000000 1.000000
vt 1.000000 0.000000
vt 0.000000 1.000000
vt 0.000000 0.000000
vt 0.931338 0.508768
vt 0.931338 0.931338
vt 1.000000 0.000000
vt 0.000000 0.000000
vt 0.000000 0.000000
vt 1.000000 1.000000
vt 0.000000 1.000000
vt 1.000000 0.000000
vt 0.000000 1.000000
vt 0.000000 0.000000
vt 1.000000 0.000000
vt 0.000000 1.000000
vt 0.000000 0.000000
vt 1.000000 0.000000
vt 0.000000 1.000000
vt 0.000000 0.000000
vt 0.000000 0.000000
vt 1.000000 1.000000
vt 0.000000 1.000000
vt 0.000000 0.000000
vt 1.000000 1.000000
vt 0.000000 1.000000
vt 0.000000 0.000000
vt 1.000000 1.000000
vt 0.000000 1.000000
vt 1.000000 0.000000
vt 0.000000 1.000000
vt 0.000000 0.000000
vt 0.000000 0.000000
vt 1.000000 1.000000
vt 0.000000 1.000000
vt 1.000000 0.000000
vt 0.000000 1.000000
vt 0.000000 0.000000
vt 1.000000 1.000000
vt 0.000000 1.000000
vt 1.000000 0.000000
vt 0.000000 1.000000
vt 0.000000 0.000000
vt 1.000000 1.000000
vt 1.000000 0.000000
vt 0.000000 1.000000
vt 0.000000 0.000000
vt 1.000000 0.000000
vt 0.000000 1.000000
vt 1.000000 1.000000
vt 1.000000 0.000000
vt 0.000000 0.000000
vt 1.000000 1.000000
vt 1.000000 0.000000
vt 1.000000 0.000000
vt 1.000000 0.000000
vt 1.000000 1.000000
vt 0.068662 0.910524
vt 0.068662 0.908385
vt 0.068662 0.931338
vt 1.000000 0.000000
vt 1.000000 1.000000
vt 1.000000 0.000000
vt 0.000000 1.000000
vt 0.000000 0.000000
vt 1.000000 0.000000
vt 0.000000 1.000000
vt 0.000000 0.000000
vt 0.000000 0.000000
vt 1.000000 1.000000
vt 0.000000 1.000000
vt 0.000000 0.000000
vt 1.000000 1.000000
vt 0.000000 1.000000
vt 1.000000 0.000000
vt 0.000000 1.000000
vt 0.000000 0.000000
vt 0.000000 0.000000
vt 1.000000 1.000000
vt 0.000000 1.000000
vt 1.000000 1.000000
vt 1.000000 0.000000
vt 1.000000 1.000000
vt 0.168347 0.831653
vt 1.000000 1.000000
vt 0.068662 0.068662
vt 1.000000 1.000000
vt 1.000000 1.000000
vt 1.000000 1.000000
vt 1.000000 1.000000
vt 1.000000 1.000000
vt 1.000000 0.000000
vt 0.068662 0.931338
vt 1.000000 0.000000
vt 1.000000 0.000000
vt 1.000000 1.000000
vt 1.000000 0.000000
vt 1.000000 1.000000
vt 1.000000 1.000000
vt 1.000000 1.000000
vt 1.000000 0.000000
vt 1.000000 0.000000
vt 1.000000 0.000000
vt 1.000000 1.000000
vt 1.000000 0.000000
vt 1.000000 1.000000
vt 1.000000 0.000000
vt 1.000000 1.000000
vt 1.000000 0.000000
vt 1.000000 1.000000
vt 1.000000 1.000000
vt 1.000000 0.000000
vt 1.000000 1.000000
vt 1.000000 0.000000
vt 1.000000 1.000000
vt 1.000000 1.000000
vt 1.000000 1.000000
vt 1.000000 0.000000
vt 1.000000 1.000000
vt 1.000000 0.000000
vt 1.000000 1.000000
vt 1.000000 1.000000
vt 1.000000 0.000000
vt 1.000000 0.000000
vt 1.000000 1.000000
vt 1.000000 0.000000
vn -0.6036 -0.5211 0.6035
vn -0.8731 0.3842 0.3002
vn -0.6035 -0.5211 -0.6036
vn 0.6035 -0.5211 0.6036
vn -0.5884 0.5547 0.5883
vn 0.5884 0.5547 -0.5883
vn 0.6036 -0.5211 -0.6035
vn -0.5883 0.5547 -0.5884
vn 0.5774 -0.5773 -0.5773
vn -0.5773 0.5774 -0.5774
vn 0.5774 0.5774 -0.5773
vn -0.7071 -0.7071 -0.0001
vn -0.5774 -0.5774 0.5773
vn -0.5774 0.5773 0.5773
vn 0.5773 0.5774 0.5774
vn 0.5773 -0.5774 0.5774
vn 0.7071 -0.7071 0.0001
vn -0.5773 -0.5774 -0.5774
vn -0.9283 -0.2165 -0.3024
vn -0.9283 -0.2165 0.3022
vn -0.8731 0.3842 -0.3003
vn 0.5883 0.5547 0.5884
vn -0.9045 0.3015 -0.3016
vn -0.9045 -0.3015 -0.3016
vn -0.9046 -0.3015 0.3014
vn -0.6392 -0.5223 -0.5645
vn -0.5112 0.6250 0.5900
vn -0.5111 0.6250 -0.5901
vn 0.6133 0.7898 -0.0071
vn -0.6245 -0.1995 0.7551
vn 0.6244 -0.1995 0.7552
vn 0.4505 0.7707 0.4506
vn 0.4506 0.7707 -0.4505
vn -0.4505 0.7707 -0.4506
vn -0.9046 0.3015 0.3014
vn 0.3014 0.3015 0.9046
vn -0.3016 0.3015 0.9045
vn -0.3016 -0.3015 0.9045
vn 0.3014 -0.3015 0.9046
vn 0.3016 0.3015 -0.9045
vn -0.3014 0.3015 -0.9046
vn 0.6254 -0.2064 -0.7525
vn -0.6133 0.7898 -0.0072
vn 0.4573 -0.7627 0.4574
vn -0.4574 -0.7627 0.4573
vn 0.9949 -0.1011 0.0010
vn -0.9949 -0.1011 0.0009
vn 0.4574 -0.7627 -0.4573
vn -0.6253 -0.2064 -0.7526
vn -0.4573 -0.7627 -0.4574
vn 0.3016 -0.3015 -0.9045
vn -0.3014 -0.3015 -0.9046
vn 0.9046 0.3015 -0.3014
vn 0.9045 -0.3015 0.3016
vn 0.9046 -0.3015 -0.3014
vn -0.4506 0.7707 0.4505
vn 0.9045 0.3015 0.3016
vn -0.6393 -0.5223 0.5643
usemtl facade1.001
s 1
f 14/1/1 50/2/2 15/3/3
f 66/4/4 17/5/5 14/6/1
f 20/7/6 66/8/4 13/9/7
f 22/10/8 13/11/7 15/12/3
f 45/13/9 34/14/10 67/15/11
f 64/16/12 5/17/13 23/18/14
f 57/19/15 59/20/16 61/21/17
f 64/16/12 63/22/10 1/23/18
f 51/24/19 14/1/1 17/25/5
f 52/26/20 17/5/5 22/27/8
f 15/3/3 52/28/20 22/29/8
f 28/30/13 32/31/15 25/32/14
f 61/21/17 62/33/11 57/19/15
f 14/1/1 49/34/21 50/2/2
f 66/4/4 18/35/22 17/5/5
f 20/7/6 18/36/22 66/8/4
f 22/10/8 20/37/6 13/11/7
f 45/13/9 47/38/18 34/14/10
f 64/16/12 23/18/14 63/22/10
f 51/24/19 49/34/21 14/1/1
f 52/26/20 51/39/19 17/5/5
f 15/3/3 50/2/2 52/28/20
f 28/30/13 30/40/16 32/31/15
f 61/21/17 68/41/9 62/33/11
usemtl facade
f 1/42/18 2/43/23 3/44/24
f 4/45/12 1/46/18 3/47/24
f 5/48/13 4/49/12 6/50/25
f 7/51/26 8/52/27 9/53/28
f 10/54/29 11/55/30 12/56/31
f 13/9/7 14/1/1 15/3/3
f 16/57/32 17/25/5 18/58/22
f 19/59/33 18/58/22 20/7/6
f 21/60/34 20/7/6 22/29/8
f 17/25/5 21/60/34 22/29/8
f 23/61/14 6/62/25 24/63/35
f 25/64/14 26/65/36 27/66/37
f 28/67/13 27/68/37 29/69/38
f 30/70/16 29/71/38 31/72/39
f 32/73/15 31/74/39 26/75/36
f 33/76/40 34/77/10 35/78/41
f 36/79/42 37/80/43 10/54/29
f 38/81/44 11/82/30 39/83/45
f 40/84/46 12/85/31 38/86/44
f 11/87/30 41/88/47 39/89/45
f 36/79/42 40/90/46 42/91/48
f 43/92/49 42/91/48 44/93/50
f 41/94/47 43/95/49 44/96/50
f 45/97/9 33/98/40 46/99/51
f 47/100/18 46/101/51 48/102/52
f 34/103/10 48/104/52 35/105/41
f 49/106/21 8/107/27 50/108/2
f 51/109/19 9/110/28 49/111/21
f 52/112/20 7/113/26 51/114/19
f 8/115/27 52/116/20 50/117/2
f 19/118/33 53/119/53 16/120/32
f 54/121/54 19/122/33 42/123/48
f 40/84/46 54/124/54 42/125/48
f 55/126/55 40/127/46 38/81/44
f 16/128/32 55/129/55 38/86/44
f 2/130/23 21/131/34 56/132/56
f 3/133/24 56/134/56 39/89/45
f 41/94/47 3/135/24 39/83/45
f 6/136/25 41/88/47 44/93/50
f 21/137/34 6/138/25 44/96/50
f 27/139/37 56/134/56 16/128/32
f 29/140/38 16/120/32 38/81/44
f 31/141/39 38/86/44 39/89/45
f 56/132/56 31/142/39 39/83/45
f 33/143/40 19/122/33 21/60/34
f 46/144/51 21/60/34 44/145/50
f 48/146/52 44/145/50 42/123/48
f 19/118/33 48/147/52 42/125/48
f 57/148/15 53/149/53 58/150/57
f 59/151/16 58/152/57 54/153/54
f 60/154/17 59/155/16 54/156/54
f 55/157/55 61/158/17 60/159/17
f 62/160/11 55/161/55 53/162/53
f 2/163/23 23/164/14 24/165/35
f 1/42/18 63/166/10 2/43/23
f 4/45/12 64/167/12 1/46/18
f 5/48/13 64/168/12 4/49/12
f 7/51/26 65/169/58 8/52/27
f 10/54/29 37/80/43 11/55/30
f 13/9/7 66/170/4 14/1/1
f 16/57/32 56/171/56 17/25/5
f 19/59/33 16/57/32 18/58/22
f 21/60/34 19/59/33 20/7/6
f 17/25/5 56/171/56 21/60/34
f 23/61/14 5/172/13 6/62/25
f 25/64/14 32/173/15 26/65/36
f 28/67/13 25/174/14 27/68/37
f 30/70/16 28/175/13 29/71/38
f 32/73/15 30/176/16 31/74/39
f 33/76/40 67/177/11 34/77/10
f 36/79/42 43/178/49 37/80/43
f 38/81/44 12/179/31 11/82/30
f 40/84/46 10/180/29 12/85/31
f 11/87/30 37/181/43 41/88/47
f 36/79/42 10/54/29 40/90/46
f 43/92/49 36/79/42 42/91/48
f 41/94/47 37/182/43 43/95/49
f 45/97/9 67/183/11 33/98/40
f 47/100/18 45/184/9 46/101/51
f 34/103/10 47/185/18 48/104/52
f 49/106/21 9/186/28 8/107/27
f 51/109/19 7/187/26 9/110/28
f 52/112/20 65/188/58 7/113/26
f 8/115/27 65/189/58 52/116/20
f 19/118/33 58/190/57 53/119/53
f 54/121/54 58/191/57 19/122/33
f 40/84/46 60/192/17 54/124/54
f 55/126/55 60/193/17 40/127/46
f 16/128/32 53/194/53 55/129/55
f 2/130/23 24/195/35 21/131/34
f 3/133/24 2/196/23 56/134/56
f 41/94/47 4/197/12 3/135/24
f 6/136/25 4/198/12 41/88/47
f 21/137/34 24/199/35 6/138/25
f 27/139/37 26/200/36 56/134/56
f 29/140/38 27/201/37 16/120/32
f 31/141/39 29/202/38 38/86/44
f 56/132/56 26/203/36 31/142/39
f 33/143/40 35/204/41 19/122/33
f 46/144/51 33/143/40 21/60/34
f 48/146/52 46/144/51 44/145/50
f 19/118/33 35/205/41 48/147/52
f 57/148/15 62/206/11 53/149/53
f 59/151/16 57/207/15 58/152/57
f 60/154/17 61/208/17 59/155/16
f 55/157/55 68/209/9 61/158/17
f 62/160/11 68/210/9 55/161/55
f 2/163/23 63/211/10 23/164/14
