# Blender v2.79 (sub 0) OBJ File: 'seagull.blend'
# www.blender.org
mtllib seagull_right_wing.mtl
o right_wing_Flying_seagull.004
v 0.634984 3.340840 -3.935328
v 0.862089 3.139930 -3.656940
v 0.237523 1.901063 -1.372180
v 0.589671 1.932679 -1.367151
v 1.072746 3.227406 -4.040125
v 0.634349 3.409346 -4.321527
v 0.257493 1.763755 -1.906812
v 1.313933 1.858601 -1.891718
v 0.324599 0.808612 -0.602143
v 0.774589 0.855241 -0.593490
v 1.371391 1.035736 -0.742755
v 0.618406 1.521247 -0.792664
v 0.723247 0.887499 -0.585061
v 0.282066 1.269751 -0.522333
v 0.318852 0.855154 -0.492225
v 0.227592 3.151531 -4.052198
v -0.636196 1.689634 -1.927179
v 0.439518 3.101994 -3.662977
v -0.114620 1.869449 -1.377216
v -0.741488 0.846045 -0.772937
v -0.085885 1.458014 -0.802728
v -0.009272 0.760660 -0.574591
vt 0.370132 0.490113
vt 0.396070 0.335816
vt 0.358859 0.471394
vt 0.377279 0.335816
vt 0.347585 0.490184
vt 0.370132 0.508902
vt 0.396070 0.354605
vt 0.339699 0.354605
vt 0.462323 0.317097
vt 0.548317 0.317097
vt 0.462421 0.293055
vt 0.548317 0.260727
vt 0.473157 0.260727
vt 0.339699 0.279446
vt 0.377279 0.298236
vt 0.372028 0.268711
vt 0.374585 0.269455
vt 0.396070 0.279517
vt 0.396070 0.265321
vt 0.392680 0.490184
vt 0.443733 0.355124
vt 0.381406 0.471394
vt 0.414860 0.335816
vt 0.452439 0.279446
vt 0.413946 0.266664
vt 0.414860 0.298236
vt 0.548833 0.364760
vt 0.460373 0.334974
vt 0.473157 0.373468
vn -0.1421 0.8615 0.4874
vn -0.0705 0.8672 0.4930
vn 0.1275 0.8562 0.5006
vn -0.0878 0.8285 0.5531
vn 0.3154 0.8728 0.3726
vn 0.3044 0.9090 0.2847
vn -0.0900 0.9589 0.2691
vn -0.0905 0.9806 0.1741
vn 0.0883 -0.8277 -0.5542
vn 0.0303 -0.8249 -0.5645
vn 0.0797 -0.8234 -0.5619
vn 0.0819 -0.8166 -0.5713
vn 0.0817 -0.8033 -0.5899
vn 0.0948 -0.8030 -0.5883
vn 0.0983 -0.8067 -0.5827
vn 0.1400 0.3137 0.9391
vn 0.3362 0.3292 0.8824
vn 0.2945 0.2959 0.9087
vn 0.3315 0.2733 0.9030
vn -0.0474 0.2592 0.9647
vn -0.0552 0.0634 0.9965
vn -0.0802 0.7981 0.5971
vn -0.1090 0.7985 0.5920
vn 0.1536 -0.8237 -0.5458
vn 0.0823 -0.8140 -0.5750
vn -0.4738 0.8036 0.3602
vn -0.5942 0.7046 0.3878
vn -0.4923 0.7938 0.3572
vn -0.6136 0.6300 0.4760
vn -0.4257 0.8128 0.3977
vn -0.0923 0.8218 0.5622
vn 0.4731 0.7661 0.4350
vn 0.4602 0.7751 0.4329
vn 0.4248 0.7646 0.4847
vn 0.4287 0.7510 0.5022
vn -0.4693 0.8395 0.2736
vn -0.4762 0.8017 0.3613
vn -0.2202 0.2814 0.9340
vn -0.3385 0.2395 0.9100
vn -0.4174 0.2424 0.8758
vn 0.0669 -0.8080 -0.5854
vn 0.0642 -0.8085 -0.5850
vn -0.6277 0.6344 0.4512
vn -0.6043 0.6685 0.4335
vn -0.0518 0.8036 0.5929
vn 0.4430 0.7392 0.5073
vn 0.4430 0.7392 0.5072
vn 0.1602 -0.8956 0.4151
vn 0.0425 -0.3131 0.9488
vn 0.1822 -0.9037 0.3875
vn 0.2095 -0.8930 0.3983
vn 0.0057 -0.1637 0.9865
usemtl lambert5SG.001
s 1
f 1/1/1 3/2/2 2/3/3
f 3/2/2 4/4/4 2/3/3
f 2/3/5 5/5/6 1/1/7
f 5/5/6 6/6/8 1/1/7
f 6/6/9 5/5/10 7/7/11
f 5/5/10 8/8/12 7/7/11
f 9/9/13 7/10/11 10/11/14
f 7/10/11 8/12/12 10/11/14
f 10/11/14 8/12/12 11/13/15
f 11/14/16 12/15/17 10/16/18
f 10/16/18 12/15/17 13/17/19
f 12/15/17 14/18/20 13/17/19
f 15/19/21 13/17/19 14/18/20
f 14/18/22 12/15/23 3/2/2
f 12/15/23 4/4/4 3/2/2
f 6/6/9 7/7/11 16/20/24
f 7/7/11 17/21/25 16/20/24
f 16/20/26 17/21/27 18/22/28
f 17/21/27 19/23/29 18/22/28
f 1/1/1 18/22/30 3/2/2
f 18/22/30 19/23/31 3/2/2
f 5/5/32 2/3/33 8/8/34
f 2/3/33 4/4/35 8/8/34
f 6/6/8 16/20/36 1/1/7
f 16/20/36 18/22/37 1/1/7
f 20/24/38 22/25/39 21/26/40
f 21/26/40 22/25/39 14/18/20
f 22/25/39 15/19/21 14/18/20
f 7/10/11 9/9/13 17/27/25
f 9/9/13 22/28/41 17/27/25
f 17/27/25 22/28/41 20/29/42
f 19/23/29 17/21/27 21/26/43
f 17/21/27 20/24/44 21/26/43
f 14/18/22 3/2/2 21/26/45
f 3/2/2 19/23/31 21/26/45
f 8/8/34 4/4/35 11/14/46
f 4/4/35 12/15/47 11/14/46
f 9/9/48 13/17/49 15/19/50
f 15/19/50 22/25/51 9/9/48
f 9/9/48 10/16/52 13/17/49
