# Blender v2.79 (sub 0) OBJ File: ''
# www.blender.org
mtllib skyBOSS.mtl
o Cube
v 1.000000 -1.000000 -1.000000
v 1.000000 -1.000000 1.000000
v -1.000000 -1.000000 1.000000
v -1.000000 -1.000000 -1.000000
v 1.000000 1.000000 -0.999999
v 0.999999 1.000000 1.000001
v -1.000000 1.000000 1.000000
v -1.000000 1.000000 -1.000000
vt 0.749023 0.334635
vt 0.749023 -0.000000
vt 0.500976 0.000000
vt 0.500977 0.334636
vt 0.749023 0.665364
vt 0.500977 1.000000
vt 0.749024 1.000000
vt 0.500977 0.665365
vt 0.250000 0.334635
vt 0.000108 0.334635
vt 0.250065 0.665365
vt 0.999023 0.665364
vt 0.999023 0.334635
vt 0.000977 0.665365
vn 0.0000 1.0000 0.0000
vn 0.0000 -1.0000 0.0000
vn -1.0000 -0.0000 0.0000
vn 0.0000 0.0000 -1.0000
vn 1.0000 0.0000 0.0000
vn -0.0000 -0.0000 1.0000
usemtl Material.001
s off
f 1/1/1 4/2/1 3/3/1 2/4/1
f 5/5/2 7/6/2 8/7/2
f 1/1/3 2/4/3 6/8/3
f 2/4/4 3/9/4 6/8/4
f 3/9/5 4/10/5 7/11/5
f 5/5/6 8/12/6 4/13/6
f 4/13/6 1/1/6 5/5/6
f 7/11/5 4/10/5 8/14/5
f 6/8/3 5/5/3 1/1/3
f 6/8/4 3/9/4 7/11/4
f 7/6/2 5/5/2 6/8/2
