# Blender v2.79 (sub 0) OBJ File: 'skyBOSS.blend'
# www.blender.org
mtllib skyBOSS.mtl
o Cube
v -1.000000 1.000000 -1.000000
v -1.000000 1.000000 1.000000
v 1.000000 1.000000 1.000000
v 1.000000 1.000000 -1.000000
v -1.000000 -1.000000 -1.000000
v -0.999999 -1.000000 1.000001
v 1.000000 -1.000000 1.000000
v 1.000000 -1.000000 -1.000000
vt 0.892392 0.828316
vt 0.128489 0.846321
vt 0.892393 0.846321
vt 0.920745 0.107194
vt 0.146742 0.091243
vt 0.920746 0.091243
vt 0.746209 0.828227
vt 0.499669 0.828227
vt 0.499669 0.119509
vt 0.253129 0.828227
vt 0.006589 0.828226
vt 0.253129 0.119509
vt 0.746209 0.119510
vt 0.992749 0.119510
vt 0.992749 0.828228
vt 0.006590 0.119508
vt 0.146741 0.107194
vt 0.128489 0.828316
vn 0.0000 -1.0000 0.0000
vn 0.0000 1.0000 -0.0000
vn 1.0000 0.0000 0.0000
vn 0.0000 -0.0000 -1.0000
vn -1.0000 0.0000 0.0000
vn 0.0000 0.0000 1.0000
usemtl Material.001
s off
f 4/1/1 2/2/1 1/3/1
f 5/4/2 7/5/2 8/6/2
f 1/7/3 2/8/3 6/9/3
f 2/8/4 3/10/4 6/9/4
f 3/10/5 4/11/5 7/12/5
f 5/13/6 8/14/6 4/15/6
f 4/15/6 1/7/6 5/13/6
f 7/12/5 4/11/5 8/16/5
f 6/9/3 5/13/3 1/7/3
f 6/9/4 3/10/4 7/12/4
f 7/5/2 5/4/2 6/17/2
f 4/1/1 3/18/1 2/2/1
