# Blender v2.79 (sub 0) OBJ File: 'flat_panorama.blend'
# www.blender.org
mtllib tree_low_1.mtl
o Tree_2.006_Icosphere.009
v 0.378904 0.418162 3.631114
v 0.471247 0.716853 3.723284
v 0.528753 0.360449 3.676717
v 0.456300 0.454228 3.863091
v 0.565419 0.493016 3.537406
v 0.674852 0.493016 3.711972
v 0.601364 0.663061 3.815053
v 0.317682 0.589988 3.674460
v 0.536970 0.651438 3.562025
v -0.076338 0.461999 3.641925
v -0.121184 0.703516 3.813951
v 0.046786 0.860254 3.764817
v 0.123459 0.385048 3.702728
v 0.026855 0.510087 3.951228
v 0.172347 0.561804 3.516980
v 0.318258 0.561804 3.749736
v 0.146248 0.702557 3.956501
v -0.110059 0.659636 3.607020
v 0.262354 0.774515 3.766274
v 0.134416 0.773033 3.549805
v 0.213913 -0.021349 3.658351
v 0.245557 0.370651 3.666830
v 0.260243 -0.021349 3.612022
v 0.268722 0.370651 3.643665
v 0.323530 -0.021349 3.628980
v 0.300782 0.368874 3.650877
v 0.340487 -0.021349 3.692266
v 0.308844 0.370651 3.683788
v 0.294158 -0.021349 3.738596
v 0.285233 0.370651 3.706833
v 0.230871 -0.021349 3.721638
v 0.254036 0.370651 3.698473
v 0.264669 0.360753 3.665931
v 0.419868 0.474192 3.707516
v 0.275989 0.349251 3.644780
v 0.428624 0.467918 3.695177
v 0.301456 0.323110 3.650682
v 0.438794 0.455370 3.697902
v 0.305349 0.310562 3.676831
v 0.440208 0.449096 3.712966
v 0.287836 0.323110 3.701510
v 0.431451 0.455370 3.725306
v 0.267496 0.348205 3.696060
v 0.421281 0.467918 3.722581
v 0.250349 0.316513 3.675705
v 0.146541 0.501971 3.715705
v 0.264747 0.331320 3.646607
v 0.152624 0.509526 3.700520
v 0.289977 0.349428 3.648401
v 0.167622 0.519505 3.700804
v 0.309144 0.355633 3.676816
v 0.176539 0.521930 3.716272
v 0.298160 0.343329 3.699502
v 0.170457 0.514376 3.731456
v 0.270273 0.328469 3.705033
v 0.155458 0.504396 3.731173
v 0.289905 0.350279 3.651014
vn -0.4171 -0.8666 0.2739
vn -0.8531 -0.3911 0.3454
vn -0.4663 0.0566 -0.8828
vn -0.4818 0.2614 0.8364
vn -0.4584 0.7427 -0.4881
vn 0.4713 0.8674 -0.1598
vn -0.4674 0.0532 -0.8825
vn -0.4844 0.5014 0.7169
vn 0.8323 0.5021 -0.2349
vn 0.8249 0.2285 -0.5171
vn 0.5809 -0.2234 0.7827
vn 0.4925 -0.6854 0.5363
vn -0.0632 -0.7146 -0.6967
vn 0.6640 -0.6211 -0.4163
vn -0.8473 -0.4034 0.3454
vn -0.9851 -0.1710 -0.0167
vn -0.3651 -0.2220 -0.9041
vn 0.3174 0.8065 0.4988
vn -0.3694 0.6144 0.6972
vn -0.6988 0.6912 -0.1841
vn -0.4587 0.7425 -0.4881
vn 0.3618 0.9059 -0.2200
vn -0.2706 0.1002 -0.9575
vn -0.4537 0.2581 0.8530
vn 0.8113 0.1697 0.5594
vn 0.8312 0.2568 -0.4930
vn 0.5714 -0.3745 0.7303
vn -0.7053 0.0722 -0.7053
vn 0.2463 0.0707 -0.9666
vn 0.9650 0.0714 -0.2523
vn 0.7024 0.0727 0.7081
vn 0.0127 0.9998 -0.0127
vn -0.2581 0.0722 0.9634
vn -0.9634 0.0722 0.2581
vn 0.0000 -1.0000 0.0000
vn -0.3616 0.7162 -0.5969
vn 0.2824 0.0464 -0.9582
vn 0.7103 -0.6013 -0.3660
vn 0.4606 -0.6153 0.6397
vn 0.7399 0.6428 0.1983
vn -0.2047 0.0464 0.9777
vn -0.6120 0.7081 0.3523
vn -0.7381 -0.6538 -0.1665
vn -0.7831 -0.3286 -0.5281
vn -0.1064 0.2241 -0.9687
vn 0.6124 0.6036 -0.5106
vn 0.7137 0.4344 0.5494
vn -0.5466 0.8162 0.1871
vn 0.1540 -0.0575 0.9864
vn -0.6479 -0.4975 0.5768
vn 0.5422 -0.8295 -0.1336
usemtl Leaves
s off
f 3//1 4//1 1//1
f 1//2 4//2 8//2
f 1//3 8//3 5//3
f 8//4 7//4 2//4
f 9//5 8//5 2//5
f 7//6 9//6 2//6
f 5//7 8//7 9//7
f 4//8 7//8 8//8
f 6//9 9//9 7//9
f 6//10 5//10 9//10
f 4//11 6//11 7//11
f 3//12 6//12 4//12
f 5//13 3//13 1//13
f 3//14 5//14 6//14
f 13//1 14//1 10//1
f 10//15 14//15 11//15
f 10//16 11//16 18//16
f 10//17 18//17 15//17
f 17//18 19//18 12//18
f 11//19 17//19 12//19
f 18//20 11//20 12//20
f 20//21 18//21 12//21
f 19//22 20//22 12//22
f 15//23 18//23 20//23
f 14//24 17//24 11//24
f 17//25 16//25 19//25
f 16//26 20//26 19//26
f 16//10 15//10 20//10
f 14//27 16//27 17//27
f 13//12 16//12 14//12
f 15//13 13//13 10//13
f 13//14 15//14 16//14
usemtl Trunk
f 21//28 22//28 24//28 23//28
f 23//29 24//29 26//29 25//29
f 25//30 26//30 28//30 27//30
f 27//31 28//31 30//31 29//31
f 24//32 22//32 32//32 30//32 28//32 26//32
f 29//33 30//33 32//33 31//33
f 31//34 32//34 22//34 21//34
f 21//35 23//35 25//35 27//35 29//35 31//35
f 33//36 34//36 36//36 35//36
f 35//37 36//37 38//37 37//37
f 37//38 38//38 40//38 39//38
f 39//39 40//39 42//39 41//39
f 36//40 34//40 44//40 42//40 40//40 38//40
f 41//41 42//41 44//41 43//41
f 43//42 44//42 34//42 33//42
f 33//43 35//43 37//43 39//43 41//43 43//43
f 45//44 46//44 48//44 47//44
f 47//45 48//45 50//45 49//45
f 49//46 50//46 52//46 51//46
f 51//47 52//47 54//47 53//47
f 48//48 46//48 56//48 54//48 52//48 50//48
f 53//49 54//49 56//49 55//49
f 55//50 56//50 46//50 45//50
f 45//51 47//51 49//51 51//51 53//51 55//51
l 35 57
