# Blender v2.79 (sub 0) OBJ File: 'ufo.blend'
# www.blender.org
mtllib ufo-leg-3-model.mtl
o leg_3.001_mesh1148554819.002
v 3.564451 -3.275887 -1.481074
v 3.929719 -3.277767 -1.723637
v 3.929196 -3.205598 -1.724986
v 3.563926 -3.203716 -1.482420
v 3.967827 -3.285652 -2.160383
v 3.967303 -3.213480 -2.161733
v 3.650076 -3.293600 -2.462433
v 3.649554 -3.221429 -2.463783
v 3.215744 -3.295629 -2.402337
v 3.215219 -3.223458 -2.403686
v 2.991886 -3.290210 -2.025348
v 2.991362 -3.218039 -2.026697
v 3.147076 -3.281424 -1.615346
v 3.146552 -3.209254 -1.616695
v 3.503595 -3.260729 -1.745105
v 3.604529 -3.265508 -1.793638
v 3.443461 -2.851458 -1.735184
v 3.346621 -2.892378 -1.696283
v 3.667586 -3.271816 -1.886101
v 3.506808 -2.817039 -1.821021
v 3.675873 -3.277963 -1.997723
v 3.519691 -2.798346 -1.930795
v 3.627166 -3.282304 -2.098592
v 3.478657 -2.800387 -2.035091
v 3.534519 -3.283671 -2.161681
v 3.394700 -2.822614 -2.105963
v 3.422755 -3.281704 -2.170086
v 3.290318 -2.859074 -2.124424
v 3.321822 -3.276925 -2.121555
v 3.193478 -2.899995 -2.085522
v 3.258764 -3.270617 -2.029091
v 3.130130 -2.934414 -1.999685
v 3.250478 -3.264469 -1.917470
v 3.117248 -2.953107 -1.889911
v 3.299183 -3.260130 -1.816601
v 3.158282 -2.951066 -1.785614
v 3.391830 -3.258760 -1.753513
v 3.242238 -2.928839 -1.714743
v 2.900759 -2.010120 -1.598368
v 2.816803 -2.032349 -1.669240
v 2.775770 -2.034389 -1.773536
v 2.788652 -2.015696 -1.883310
v 2.852000 -1.981277 -1.969147
v 2.948840 -1.940357 -2.008048
v 3.053222 -1.903896 -1.989588
v 3.137178 -1.881669 -1.918716
v 3.178214 -1.879628 -1.814420
v 3.165330 -1.898321 -1.704646
v 3.101982 -1.932740 -1.618809
v 3.005141 -1.973661 -1.579909
vt 0.770663 0.476436
vt 0.810187 0.476436
vt 0.810164 0.483406
vt 0.770640 0.483406
vt 0.838203 0.449597
vt 0.809675 0.454808
vt 0.810263 0.448100
vt 0.838791 0.442890
vt 0.770640 0.449597
vt 0.771228 0.442890
vt 0.770640 0.454808
vt 0.793145 0.459495
vt 0.793977 0.466258
vt 0.771471 0.461571
vt 0.832308 0.454808
vt 0.833139 0.461571
vt 0.732894 0.390376
vt 0.765076 0.395639
vt 0.765404 0.402341
vt 0.733222 0.397077
vt 0.803064 0.390376
vt 0.803392 0.397077
vt 0.652271 0.372212
vt 0.644001 0.331398
vt 0.669000 0.298668
vt 0.708443 0.298668
vt 0.732628 0.331398
vt 0.723344 0.372212
vt 0.687582 0.390376
vt 0.708223 0.390376
vt 0.732894 0.423578
vt 0.724097 0.464981
vt 0.688457 0.483406
vt 0.652811 0.464980
vt 0.644001 0.423578
vt 0.668662 0.390376
vt 0.740207 0.358229
vt 0.736167 0.348460
vt 0.776586 0.349309
vt 0.776542 0.359782
vt 0.732628 0.338973
vt 0.776543 0.338804
vt 0.645449 0.297910
vt 0.644001 0.289926
vt 0.689804 0.291396
vt 0.689212 0.298668
vt 0.644222 0.279368
vt 0.690007 0.281066
vt 0.646053 0.269066
vt 0.689767 0.270446
vt 0.649002 0.261779
vt 0.689147 0.262382
vt 0.732628 0.329681
vt 0.736449 0.322040
vt 0.772492 0.323341
vt 0.772780 0.331081
vt 0.739850 0.311925
vt 0.772364 0.312830
vt 0.741919 0.302046
vt 0.772432 0.302364
vt 0.738681 0.388721
vt 0.738385 0.379278
vt 0.769067 0.381372
vt 0.769293 0.390376
vt 0.736169 0.368685
vt 0.768945 0.370540
vt 0.732628 0.359782
vt 0.768958 0.360781
vt 0.857968 0.369541
vt 0.858091 0.380373
vt 0.746709 0.442890
vt 0.756823 0.442890
vt 0.765583 0.448318
vt 0.770640 0.457720
vt 0.770640 0.468576
vt 0.765584 0.477978
vt 0.756825 0.483406
vt 0.746711 0.483406
vt 0.737951 0.477978
vt 0.732894 0.468576
vt 0.732894 0.457720
vt 0.737950 0.448317
vt 0.858316 0.389376
vt 0.861425 0.302046
vt 0.861357 0.312512
vt 0.861484 0.323023
vt 0.861772 0.330763
vt 0.777881 0.261779
vt 0.778501 0.269844
vt 0.778741 0.280464
vt 0.778538 0.290794
vt 0.865468 0.331081
vt 0.865586 0.338804
vt 0.776426 0.331081
vt 0.865628 0.349309
vt 0.865584 0.359782
vt 0.857981 0.359782
vt 0.770640 0.417644
vt 0.770642 0.428314
vt 0.765586 0.437555
vt 0.756828 0.442890
vt 0.746714 0.442889
vt 0.737954 0.437554
vt 0.732895 0.428313
vt 0.732894 0.417643
vt 0.737949 0.408403
vt 0.746708 0.403068
vt 0.756822 0.403068
vt 0.765581 0.408403
vn 0.5532 0.0196 0.8328
vn 0.9962 0.0088 0.0868
vn 0.6891 -0.0086 -0.7247
vn -0.1369 -0.0195 -0.9904
vn -0.8598 -0.0158 -0.5103
vn -0.9352 -0.0002 0.3540
vn -0.3064 0.0156 0.9518
vn -0.0073 0.9998 -0.0187
vn 0.0073 -0.9998 0.0187
vn 0.3985 0.0363 0.9164
vn 0.7826 0.2064 0.5873
vn 0.9460 0.3057 0.1078
vn 0.8624 0.3258 -0.3874
vn 0.5587 0.2700 -0.7842
vn 0.0995 0.1436 -0.9846
vn -0.3985 -0.0363 -0.9164
vn -0.7774 -0.2263 -0.5868
vn -0.9248 -0.3644 -0.1091
vn -0.8335 -0.4039 0.3771
vn -0.5419 -0.3307 0.7726
vn -0.0957 -0.1651 0.9816
vn -0.5651 -0.3070 0.7657
vn -0.0216 -0.9983 0.0534
vn -0.8639 -0.3651 0.3470
vn -0.9312 -0.3253 -0.1647
vn -0.7490 -0.1983 -0.6322
vn -0.3661 -0.0182 -0.9304
vn 0.1149 0.1668 -0.9793
vn 0.5651 0.3070 -0.7657
vn 0.8639 0.3651 -0.3470
vn 0.9312 0.3253 0.1647
vn 0.7490 0.1983 0.6322
vn 0.3661 0.0182 0.9304
vn -0.1149 -0.1668 0.9793
vn -0.3460 0.9308 0.1179
usemtl mat17
s off
f 1/1/1 2/2/1 3/3/1 4/4/1
f 2/5/2 5/6/2 6/7/2 3/8/2
f 5/6/3 7/9/3 8/10/3 6/7/3
f 7/11/4 9/12/4 10/13/4 8/14/4
f 9/12/5 11/15/5 12/16/5 10/13/5
f 11/17/6 13/18/6 14/19/6 12/20/6
f 13/18/7 1/21/7 4/22/7 14/19/7
f 4/23/8 3/24/8 6/25/8 8/26/8 10/27/8 12/28/8 14/29/8
f 13/30/9 11/31/9 9/32/9 7/33/9 5/34/9 2/35/9 1/36/9
usemtl mat16
f 15/37/10 16/38/10 17/39/10 18/40/10
f 16/38/11 19/41/11 20/42/11 17/39/11
f 19/43/12 21/44/12 22/45/12 20/46/12
f 21/44/13 23/47/13 24/48/13 22/45/13
f 23/47/14 25/49/14 26/50/14 24/48/14
f 25/49/15 27/51/15 28/52/15 26/50/15
f 27/53/16 29/54/16 30/55/16 28/56/16
f 29/54/17 31/57/17 32/58/17 30/55/17
f 31/57/18 33/59/18 34/60/18 32/58/18
f 33/61/19 35/62/19 36/63/19 34/64/19
f 35/62/20 37/65/20 38/66/20 36/63/20
f 37/65/21 15/67/21 18/68/21 38/66/21
f 39/69/22 40/70/22 36/63/22 38/66/22
f 37/71/23 35/72/23 33/73/23 31/74/23 29/75/23 27/76/23 25/77/23 23/78/23 21/79/23 19/80/23 16/81/23 15/82/23
f 40/70/24 41/83/24 34/64/24 36/63/24
f 41/84/25 42/85/25 32/58/25 34/60/25
f 42/85/26 43/86/26 30/55/26 32/58/26
f 43/86/27 44/87/27 28/56/27 30/55/27
f 44/88/28 45/89/28 26/50/28 28/52/28
f 45/89/29 46/90/29 24/48/29 26/50/29
f 46/90/30 47/91/30 22/45/30 24/48/30
f 47/92/31 48/93/31 20/42/31 22/94/31
f 48/93/32 49/95/32 17/39/32 20/42/32
f 49/95/33 50/96/33 18/40/33 17/39/33
f 50/97/34 39/69/34 38/66/34 18/68/34
f 50/98/35 49/99/35 48/100/35 47/101/35 46/102/35 45/103/35 44/104/35 43/105/35 42/106/35 41/107/35 40/108/35 39/109/35
