# Blender v2.79 (sub 0) OBJ File: 'ufo.blend'
# www.blender.org
mtllib ufo-leg-1-model.mtl
o leg_1.001_mesh1902609553.002
v -0.104385 -3.172776 3.445811
v -0.213068 -3.171953 3.473245
v -0.225716 -2.820234 3.342445
v -0.117228 -2.826426 3.314914
v -0.293470 -3.170610 3.551344
v -0.305631 -2.797499 3.417694
v -0.324045 -3.169106 3.659181
v -0.335560 -2.764310 3.520495
v -0.296601 -3.167841 3.767858
v -0.307486 -2.729560 3.623307
v -0.218494 -3.167157 3.848258
v -0.228929 -2.702563 3.698578
v -0.110648 -3.167237 3.878837
v -0.120940 -2.690549 3.726139
v -0.001963 -3.168057 3.851402
v -0.012454 -2.696741 3.698608
v 0.078439 -3.169401 3.773303
v 0.067462 -2.719476 3.623358
v 0.109014 -3.170906 3.665467
v 0.097391 -2.752665 3.520557
v 0.081570 -3.172170 3.556789
v 0.069316 -2.787415 3.417746
v 0.003461 -3.172855 3.476388
v -0.009238 -2.814414 3.342476
v -0.034387 -1.877607 3.032709
v 0.044168 -1.850608 3.107980
v 0.072242 -1.815859 3.210789
v 0.042313 -1.782671 3.313593
v -0.037603 -1.759934 3.388842
v -0.146089 -1.753743 3.416373
v -0.254078 -1.765756 3.388811
v -0.332635 -1.792755 3.313541
v -0.360709 -1.827503 3.210730
v -0.330779 -1.860693 3.107927
v -0.250864 -1.883429 3.032679
v -0.142377 -1.889620 3.005147
v -0.125987 -3.248761 3.150666
v -0.518440 -3.244986 3.346187
v -0.518332 -3.172811 3.345015
v -0.125879 -3.176585 3.149493
v -0.610238 -3.237882 3.774889
v -0.610129 -3.165707 3.773715
v -0.332257 -3.232798 4.113949
v -0.332146 -3.160623 4.112776
v 0.106180 -3.233562 4.108049
v 0.106291 -3.161387 4.106876
v 0.374919 -3.239598 3.761632
v 0.375029 -3.167423 3.760460
v 0.271595 -3.246362 3.335557
v 0.271705 -3.174186 3.334384
vt 0.761672 0.363547
vt 0.791125 0.355263
vt 0.791270 0.364180
vt 0.761118 0.354714
vt 0.791123 0.345259
vt 0.759410 0.344882
vt 0.791265 0.336848
vt 0.684589 0.305049
vt 0.718937 0.295837
vt 0.718847 0.305428
vt 0.681985 0.295905
vt 0.718866 0.286086
vt 0.679784 0.286465
vt 0.718653 0.278787
vt 0.875754 0.371574
vt 0.836347 0.364180
vt 0.876426 0.364417
vt 0.873959 0.381062
vt 0.836084 0.371455
vt 0.871523 0.390340
vt 0.835995 0.381199
vt 0.868968 0.316788
vt 0.835996 0.310378
vt 0.871411 0.310169
vt 0.866917 0.326176
vt 0.836254 0.317338
vt 0.865809 0.335815
vt 0.836338 0.326967
vt 0.757349 0.326758
vt 0.791004 0.462953
vt 0.778739 0.476636
vt 0.757494 0.452935
vt 0.757265 0.317129
vt 0.757007 0.381199
vt 0.836104 0.390800
vt 0.757116 0.390800
vt 0.757096 0.371455
vt 0.797878 0.286086
vt 0.797665 0.278787
vt 0.797949 0.295837
vt 0.870284 0.336686
vt 0.870142 0.345097
vt 0.870144 0.355101
vt 0.757237 0.336477
vt 0.836226 0.336686
vt 0.791027 0.415817
vt 0.757494 0.425721
vt 0.762045 0.407239
vt 0.824821 0.470333
vt 0.791004 0.473023
vt 0.791201 0.466720
vt 0.853671 0.466720
vt 0.824625 0.476636
vt 0.825840 0.466720
vt 0.791004 0.460302
vt 0.825756 0.460302
vt 0.817248 0.402287
vt 0.835988 0.391597
vt 0.835895 0.397984
vt 0.782357 0.402287
vt 0.817341 0.395900
vt 0.757494 0.397984
vt 0.782450 0.395900
vt 0.826095 0.453992
vt 0.791004 0.460302
vt 0.791110 0.453992
vt 0.717221 0.390800
vt 0.678576 0.335897
vt 0.757007 0.335897
vt 0.686392 0.459635
vt 0.735596 0.390800
vt 0.757494 0.421434
vt 0.757007 0.336686
vt 0.678576 0.279258
vt 0.761984 0.444260
vt 0.769760 0.439252
vt 0.778738 0.439252
vt 0.786515 0.444260
vt 0.791004 0.452935
vt 0.786515 0.471628
vt 0.769760 0.476636
vt 0.761984 0.471628
vt 0.757494 0.462952
vt 0.757007 0.310169
vt 0.757359 0.364180
vt 0.797859 0.305428
vt 0.870289 0.364019
vt 0.769836 0.402287
vt 0.778812 0.402287
vt 0.786568 0.407239
vt 0.790993 0.425722
vt 0.786476 0.434299
vt 0.778686 0.439252
vt 0.769710 0.439252
vt 0.761953 0.434299
vt 0.757528 0.415817
vt 0.853474 0.473023
vt 0.791088 0.466720
vt 0.757587 0.391597
vt 0.825989 0.460302
vt 0.748846 0.373891
vt 0.685949 0.373891
vt 0.700656 0.305428
vt 0.735561 0.305428
vt 0.749679 0.459635
vt 0.718035 0.476636
vt 0.678576 0.421435
vt 0.700474 0.390800
vn -0.2491 -0.3505 -0.9028
vn -0.6996 -0.2710 -0.6611
vn -0.9630 -0.1182 -0.2422
vn -0.9678 0.0565 0.2452
vn -0.7129 0.2036 0.6710
vn -0.2668 0.2901 0.9190
vn 0.2355 0.3011 0.9241
vn 0.6784 0.2402 0.6943
vn 0.9563 0.1132 0.2696
vn 0.9681 -0.0576 -0.2438
vn 0.7002 -0.2228 -0.6783
vn 0.2573 -0.3302 -0.9082
vn 0.7129 -0.2028 -0.6713
vn -0.0043 -0.9999 0.0127
vn 0.9678 -0.0552 -0.2456
vn 0.9634 0.1072 0.2459
vn 0.7008 0.2408 0.6715
vn 0.2504 0.3100 0.9172
vn -0.2670 0.2961 0.9171
vn -0.7129 0.2028 0.6713
vn -0.9678 0.0552 0.2456
vn -0.9634 -0.1072 -0.2459
vn -0.7008 -0.2408 -0.6715
vn -0.2504 -0.3100 -0.9172
vn 0.2670 -0.2961 -0.9171
vn -0.0255 0.9491 -0.3138
vn -0.4460 -0.0139 -0.8949
vn -0.9778 -0.0019 -0.2094
vn -0.7733 0.0115 0.6339
vn 0.0135 0.0162 0.9998
vn 0.7902 0.0087 0.6128
vn 0.9718 -0.0053 -0.2356
vn 0.4217 -0.0154 -0.9066
vn 0.0015 0.9999 -0.0162
vn -0.0015 -0.9999 0.0162
vn -0.2321 -0.3464 -0.9089
vn -0.6734 -0.2686 -0.6887
vn -0.9556 -0.1194 -0.2693
vn -0.9682 0.0564 0.2438
vn -0.7031 0.2037 0.6813
vn -0.2609 0.2894 0.9210
vn 0.2506 0.3036 0.9193
vn 0.7008 0.2409 0.6715
vn 0.9632 0.1115 0.2444
vn 0.9679 -0.0576 -0.2448
vn 0.7133 -0.2230 -0.6644
vn 0.2678 -0.3319 -0.9045
vn -0.0043 -0.9999 0.0128
vn -0.0044 -0.9999 0.0128
vn -0.0044 -0.9999 0.0127
vn -0.0255 0.9491 -0.3139
vn -0.7734 0.0115 0.6339
usemtl mat16
s off
f 1/1/1 3/2/1 4/3/1
f 2/4/2 6/5/2 3/2/2
f 5/6/3 8/7/3 6/5/3
f 7/8/4 10/9/4 8/10/4
f 9/11/5 12/12/5 10/9/5
f 11/13/6 14/14/6 12/12/6
f 15/15/7 14/16/7 13/17/7
f 17/18/8 16/19/8 15/15/8
f 19/20/9 18/21/9 17/18/9
f 21/22/10 20/23/10 19/24/10
f 23/25/11 22/26/11 21/22/11
f 1/27/12 24/28/12 23/25/12
f 25/29/13 22/26/13 24/28/13
f 13/30/14 9/31/14 1/32/14
f 26/33/15 20/23/15 22/26/15
f 28/34/16 20/35/16 27/36/16
f 29/37/17 18/21/17 28/34/17
f 29/37/18 14/16/18 16/19/18
f 31/38/19 14/14/19 30/39/19
f 31/38/20 10/9/20 12/12/20
f 32/40/21 8/10/21 10/9/21
f 33/41/22 6/5/22 8/7/22
f 34/42/23 3/2/23 6/5/23
f 35/43/24 4/3/24 3/2/24
f 36/44/25 24/28/25 4/45/25
f 33/46/26 27/47/26 25/48/26
f 38/49/27 40/50/27 37/51/27
f 41/52/28 39/53/28 38/49/28
f 41/54/29 44/55/29 42/56/29
f 45/57/30 44/58/30 43/59/30
f 47/60/31 46/61/31 45/57/31
f 49/62/32 48/63/32 47/60/32
f 37/64/33 50/65/33 49/66/33
f 39/67/34 44/68/34 50/69/34
f 47/70/35 41/71/35 38/72/35
f 1/1/36 2/4/36 3/2/36
f 2/4/37 5/6/37 6/5/37
f 5/6/38 7/73/38 8/7/38
f 7/8/39 9/11/39 10/9/39
f 9/11/40 11/13/40 12/12/40
f 11/13/41 13/74/41 14/14/41
f 15/15/42 16/19/42 14/16/42
f 17/18/43 18/21/43 16/19/43
f 19/20/44 20/35/44 18/21/44
f 21/22/45 22/26/45 20/23/45
f 23/25/46 24/28/46 22/26/46
f 1/27/47 4/45/47 24/28/47
f 25/29/13 26/33/13 22/26/13
f 1/32/14 23/75/14 21/76/14
f 21/76/14 19/77/14 1/32/14
f 17/78/48 15/79/48 13/30/48
f 13/30/49 11/80/49 9/31/49
f 9/31/14 7/81/14 1/32/14
f 5/82/50 2/83/50 1/32/50
f 1/32/14 19/77/14 17/78/14
f 17/78/14 13/30/14 1/32/14
f 7/81/50 5/82/50 1/32/50
f 26/33/15 27/84/15 20/23/15
f 28/34/16 18/21/16 20/35/16
f 29/37/17 16/19/17 18/21/17
f 29/37/18 30/85/18 14/16/18
f 31/38/19 12/12/19 14/14/19
f 31/38/20 32/40/20 10/9/20
f 32/40/21 33/86/21 8/10/21
f 33/41/22 34/42/22 6/5/22
f 34/42/23 35/43/23 3/2/23
f 35/43/24 36/87/24 4/3/24
f 36/44/25 25/29/25 24/28/25
f 25/48/26 36/88/26 33/46/26
f 35/89/26 34/90/26 33/46/26
f 33/46/26 32/91/26 31/92/26
f 31/92/26 30/93/26 33/46/26
f 29/94/26 28/95/26 27/47/26
f 27/47/51 26/96/51 25/48/51
f 36/88/26 35/89/26 33/46/26
f 33/46/26 30/93/26 29/94/26
f 29/94/26 27/47/26 33/46/26
f 38/49/27 39/53/27 40/50/27
f 41/52/28 42/97/28 39/53/28
f 41/54/52 43/98/52 44/55/52
f 45/57/30 46/61/30 44/58/30
f 47/60/31 48/63/31 46/61/31
f 49/62/32 50/99/32 48/63/32
f 37/64/33 40/100/33 50/65/33
f 50/69/34 40/101/34 39/67/34
f 39/67/34 42/102/34 44/68/34
f 44/68/34 46/103/34 48/104/34
f 48/104/34 50/69/34 44/68/34
f 37/105/35 49/106/35 38/72/35
f 47/70/35 45/107/35 43/108/35
f 43/108/35 41/71/35 47/70/35
f 38/72/35 49/106/35 47/70/35
